<svg xmlns="http://www.w3.org/2000/svg" xmlns:xlink="http://www.w3.org/1999/xlink" xmlns:s="https://github.com/nturley/netlistsvg" width="546" height="308"><style>svg {
  stroke:#000;
  fill:none;
}
text {
  fill:#000;
  stroke:none;
  font-size:10px;
  font-weight: bold;
  font-family: "Courier New", monospace;
}
line {
    stroke-linecap: round;
}
.nodelabel {
  text-anchor: middle;
}
.inputPortLabel {
  text-anchor: end;
}
.splitjoinBody {
  fill:#000;
}</style><g s:type="dff" transform="translate(93,22)" s:width="30" s:height="40" id="cell_$procdff$9"><s:alias val="$dff"/><s:alias val="$_DFF_"/><s:alias val="$_DFF_P_"/><s:alias val="dff-bus"/><s:alias val="$dff-bus"/><s:alias val="$_DFF_-bus"/><s:alias val="$_DFF_P_-bus"/><rect width="30" height="40" x="0" y="0" fill="#ffef8b" class="cell_$procdff$9"/><path d="M0,35 L5,30 L0,25" class="cell_$procdff$9"/><g s:x="31" s:y="10" s:pid="Q"/><g s:x="-1" s:y="30" s:pid="CLK"/><g s:x="-1" s:y="30" s:pid="C"/><g s:x="-1" s:y="10" s:pid="D"/></g><g s:type="mux-bus" transform="translate(317.6666666666667,73)" s:width="24" s:height="40" id="cell_$procmux$4"><s:alias val="$pmux-bus"/><s:alias val="$mux-bus"/><s:alias val="$_MUX_-bus"/><path d="M8,2 L8,0 L24,8 L24,32 L8,40 L8,38" fill="#ffffff" class="cell_$procmux$4"/><path d="M4,2 L4,0 L22,9 L22,31 L4,40 L4,38" fill="#ffffff" class="cell_$procmux$4"/><path d="M0,0 L20,10 L20,30 L0,40 Z" fill="#ffffff" class="cell_$procmux$4"/><text x="5" y="32" class="nodelabel cell_$procmux$4" s:attribute="">1</text><text x="5" y="13" class="nodelabel cell_$procmux$4" s:attribute="">0</text><g s:x="-1" s:y="10" s:pid="A"/><g s:x="-1" s:y="30" s:pid="B"/><g s:x="12" s:y="38" s:pid="S"/><g s:x="24.5" s:y="20" s:pid="Y"/></g><g s:type="mux-bus" transform="translate(465,83)" s:width="24" s:height="40" id="cell_$procmux$7"><s:alias val="$pmux-bus"/><s:alias val="$mux-bus"/><s:alias val="$_MUX_-bus"/><path d="M8,2 L8,0 L24,8 L24,32 L8,40 L8,38" fill="#ffffff" class="cell_$procmux$7"/><path d="M4,2 L4,0 L22,9 L22,31 L4,40 L4,38" fill="#ffffff" class="cell_$procmux$7"/><path d="M0,0 L20,10 L20,30 L0,40 Z" fill="#ffffff" class="cell_$procmux$7"/><text x="5" y="32" class="nodelabel cell_$procmux$7" s:attribute="">1</text><text x="5" y="13" class="nodelabel cell_$procmux$7" s:attribute="">0</text><g s:x="-1" s:y="10" s:pid="A"/><g s:x="-1" s:y="30" s:pid="B"/><g s:x="12" s:y="38" s:pid="S"/><g s:x="24.5" s:y="20" s:pid="Y"/></g><g s:type="inputExt" transform="translate(12,42)" s:width="30" s:height="20" id="cell_i_tclk"><text x="15" y="-4" class="nodelabel cell_i_tclk" s:attribute="ref">i_tclk</text><s:alias val="$_inputExt_"/><path d="M0,0 L0,20 L15,20 L30,10 L15,0 Z" fill="#8bcaff" class="cell_i_tclk"/><g s:x="30" s:y="10" s:pid="Y"/></g><g s:type="inputExt" transform="translate(381,259)" s:width="30" s:height="20" id="cell_i_trst_n"><text x="15" y="-4" class="nodelabel cell_i_trst_n" s:attribute="ref">i_trst_n</text><s:alias val="$_inputExt_"/><path d="M0,0 L0,20 L15,20 L30,10 L15,0 Z" fill="#8bcaff" class="cell_i_trst_n"/><g s:x="30" s:y="10" s:pid="Y"/></g><g s:type="inputExt" transform="translate(178,168)" s:width="30" s:height="20" id="cell_i_stateIsUpdateIr"><text x="15" y="-4" class="nodelabel cell_i_stateIsUpdateIr" s:attribute="ref">i_stateIsUpdateIr</text><s:alias val="$_inputExt_"/><path d="M0,0 L0,20 L15,20 L30,10 L15,0 Z" fill="#8bcaff" class="cell_i_stateIsUpdateIr"/><g s:x="30" s:y="10" s:pid="Y"/></g><g s:type="inputExt" transform="translate(83,107)" s:width="30" s:height="20" id="cell_i_shiftReg"><text x="15" y="-4" class="nodelabel cell_i_shiftReg" s:attribute="ref">i_shiftReg</text><s:alias val="$_inputExt_"/><path d="M0,0 L0,20 L15,20 L30,10 L15,0 Z" fill="#8bcaff" class="cell_i_shiftReg"/><g s:x="30" s:y="10" s:pid="Y"/></g><g s:type="outputExt" transform="translate(464,22)" s:width="30" s:height="20" id="cell_o_instrReg"><text x="15" y="-4" class="nodelabel cell_o_instrReg" s:attribute="ref">o_instrReg</text><s:alias val="$_outputExt_"/><path d="M30,0 L30,20 L15,20 L0,10 L15,0 Z" fill="#169300" class="cell_o_instrReg"/><g s:x="0" s:y="10" s:pid="A"/></g><g s:type="constant" transform="translate(315,198)" s:width="30" s:height="20" id="cell_00000000000000000000000000000000"><text x="15" y="-4" class="nodelabel cell_00000000000000000000000000000000" s:attribute="ref">0x0</text><s:alias val="$_constant_"/><rect width="30" height="20" fill="#745bff" class="cell_00000000000000000000000000000000"/><g s:x="31" s:y="10" s:pid="Y"/></g><line x1="42" x2="92" y1="52" y2="52" class="net_2 width_1" style="stroke-width: 1"/><line x1="489.5" x2="534" y1="103" y2="103" class="net_69,70,71,72,73,74,75,76,77,78,79,80,81,82,83,84,85,86,87,88,89,90,91,92,93,94,95,96,97,98,99,100 width_32" style="stroke-width: 2"/><line x1="534" x2="534" y1="103" y2="290" class="net_69,70,71,72,73,74,75,76,77,78,79,80,81,82,83,84,85,86,87,88,89,90,91,92,93,94,95,96,97,98,99,100 width_32" style="stroke-width: 2"/><line x1="534" x2="58" y1="290" y2="290" class="net_69,70,71,72,73,74,75,76,77,78,79,80,81,82,83,84,85,86,87,88,89,90,91,92,93,94,95,96,97,98,99,100 width_32" style="stroke-width: 2"/><line x1="58" x2="58" y1="290" y2="32" class="net_69,70,71,72,73,74,75,76,77,78,79,80,81,82,83,84,85,86,87,88,89,90,91,92,93,94,95,96,97,98,99,100 width_32" style="stroke-width: 2"/><line x1="58" x2="92" y1="32" y2="32" class="net_69,70,71,72,73,74,75,76,77,78,79,80,81,82,83,84,85,86,87,88,89,90,91,92,93,94,95,96,97,98,99,100 width_32" style="stroke-width: 2"/><line x1="124" x2="153" y1="32" y2="32" class="net_37,38,39,40,41,42,43,44,45,46,47,48,49,50,51,52,53,54,55,56,57,58,59,60,61,62,63,64,65,66,67,68 width_32" style="stroke-width: 2"/><line x1="153" x2="153" y1="32" y2="83" class="net_37,38,39,40,41,42,43,44,45,46,47,48,49,50,51,52,53,54,55,56,57,58,59,60,61,62,63,64,65,66,67,68 width_32" style="stroke-width: 2"/><circle cx="153" cy="32" r="3" style="fill:#000" class="net_37,38,39,40,41,42,43,44,45,46,47,48,49,50,51,52,53,54,55,56,57,58,59,60,61,62,63,64,65,66,67,68 width_32"/><line x1="153" x2="316.6666666666667" y1="83" y2="83" class="net_37,38,39,40,41,42,43,44,45,46,47,48,49,50,51,52,53,54,55,56,57,58,59,60,61,62,63,64,65,66,67,68 width_32" style="stroke-width: 2"/><line x1="124" x2="464" y1="32" y2="32" class="net_37,38,39,40,41,42,43,44,45,46,47,48,49,50,51,52,53,54,55,56,57,58,59,60,61,62,63,64,65,66,67,68 width_32" style="stroke-width: 2"/><line x1="113" x2="290" y1="117" y2="117" class="net_5,6,7,8,9,10,11,12,13,14,15,16,17,18,19,20,21,22,23,24,25,26,27,28,29,30,31,32,33,34,35,36 width_32" style="stroke-width: 2"/><line x1="290" x2="290" y1="117" y2="103" class="net_5,6,7,8,9,10,11,12,13,14,15,16,17,18,19,20,21,22,23,24,25,26,27,28,29,30,31,32,33,34,35,36 width_32" style="stroke-width: 2"/><line x1="290" x2="316.6666666666667" y1="103" y2="103" class="net_5,6,7,8,9,10,11,12,13,14,15,16,17,18,19,20,21,22,23,24,25,26,27,28,29,30,31,32,33,34,35,36 width_32" style="stroke-width: 2"/><line x1="208" x2="329.6666666666667" y1="178" y2="178" class="net_4 width_1" style="stroke-width: 1"/><line x1="329.6666666666667" x2="329.6666666666667" y1="178" y2="111" class="net_4 width_1" style="stroke-width: 1"/><line x1="342.1666666666667" x2="464" y1="93" y2="93" class="net_101,102,103,104,105,106,107,108,109,110,111,112,113,114,115,116,117,118,119,120,121,122,123,124,125,126,127,128,129,130,131,132 width_32" style="stroke-width: 2"/><line x1="346" x2="439" y1="208" y2="208" class="net_133,134,135,136,137,138,139,140,141,142,143,144,145,146,147,148,149,150,151,152,153,154,155,156,157,158,159,160,161,162,163,164 width_32" style="stroke-width: 2"/><line x1="439" x2="439" y1="208" y2="113" class="net_133,134,135,136,137,138,139,140,141,142,143,144,145,146,147,148,149,150,151,152,153,154,155,156,157,158,159,160,161,162,163,164 width_32" style="stroke-width: 2"/><line x1="439" x2="464" y1="113" y2="113" class="net_133,134,135,136,137,138,139,140,141,142,143,144,145,146,147,148,149,150,151,152,153,154,155,156,157,158,159,160,161,162,163,164 width_32" style="stroke-width: 2"/><line x1="411" x2="477" y1="269" y2="269" class="net_3 width_1" style="stroke-width: 1"/><line x1="477" x2="477" y1="269" y2="121" class="net_3 width_1" style="stroke-width: 1"/><rect x="329.5" y="285" width="22" height="9" class="net_69,70,71,72,73,74,75,76,77,78,79,80,81,82,83,84,85,86,87,88,89,90,91,92,93,94,95,96,97,98,99,100 width_32 busLabel_32" style="fill: white; stroke: none"/><text x="328.5" y="293" class="net_69,70,71,72,73,74,75,76,77,78,79,80,81,82,83,84,85,86,87,88,89,90,91,92,93,94,95,96,97,98,99,100 width_32 busLabel_32">/32/</text><rect x="329.5" y="27" width="22" height="9" class="net_37,38,39,40,41,42,43,44,45,46,47,48,49,50,51,52,53,54,55,56,57,58,59,60,61,62,63,64,65,66,67,68 width_32 busLabel_32" style="fill: white; stroke: none"/><text x="328.5" y="35" class="net_37,38,39,40,41,42,43,44,45,46,47,48,49,50,51,52,53,54,55,56,57,58,59,60,61,62,63,64,65,66,67,68 width_32 busLabel_32">/32/</text><rect x="329.5" y="27" width="22" height="9" class="net_37,38,39,40,41,42,43,44,45,46,47,48,49,50,51,52,53,54,55,56,57,58,59,60,61,62,63,64,65,66,67,68 width_32 busLabel_32" style="fill: white; stroke: none"/><text x="328.5" y="35" class="net_37,38,39,40,41,42,43,44,45,46,47,48,49,50,51,52,53,54,55,56,57,58,59,60,61,62,63,64,65,66,67,68 width_32 busLabel_32">/32/</text><rect x="228" y="112" width="22" height="9" class="net_5,6,7,8,9,10,11,12,13,14,15,16,17,18,19,20,21,22,23,24,25,26,27,28,29,30,31,32,33,34,35,36 width_32 busLabel_32" style="fill: white; stroke: none"/><text x="227" y="120" class="net_5,6,7,8,9,10,11,12,13,14,15,16,17,18,19,20,21,22,23,24,25,26,27,28,29,30,31,32,33,34,35,36 width_32 busLabel_32">/32/</text><rect x="404" y="88" width="22" height="9" class="net_101,102,103,104,105,106,107,108,109,110,111,112,113,114,115,116,117,118,119,120,121,122,123,124,125,126,127,128,129,130,131,132 width_32 busLabel_32" style="fill: white; stroke: none"/><text x="403" y="96" class="net_101,102,103,104,105,106,107,108,109,110,111,112,113,114,115,116,117,118,119,120,121,122,123,124,125,126,127,128,129,130,131,132 width_32 busLabel_32">/32/</text><rect x="404" y="203" width="22" height="9" class="net_133,134,135,136,137,138,139,140,141,142,143,144,145,146,147,148,149,150,151,152,153,154,155,156,157,158,159,160,161,162,163,164 width_32 busLabel_32" style="fill: white; stroke: none"/><text x="403" y="211" class="net_133,134,135,136,137,138,139,140,141,142,143,144,145,146,147,148,149,150,151,152,153,154,155,156,157,158,159,160,161,162,163,164 width_32 busLabel_32">/32/</text></svg>