<svg xmlns="http://www.w3.org/2000/svg" xmlns:xlink="http://www.w3.org/1999/xlink" xmlns:s="https://github.com/nturley/netlistsvg" width="1060.5" height="550.5"><style>svg {
  stroke:#000;
  fill:none;
}
text {
  fill:#000;
  stroke:none;
  font-size:10px;
  font-weight: bold;
  font-family: "Courier New", monospace;
}
line {
    stroke-linecap: round;
}
.nodelabel {
  text-anchor: middle;
}
.inputPortLabel {
  text-anchor: end;
}
.splitjoinBody {
  fill:#000;
}</style><g s:type="or" transform="translate(660,277.5)" s:width="30" s:height="25" id="cell_$logic_or$jtag_shiftReg.sv:23$2"><s:alias val="$or"/><s:alias val="$logic_or"/><s:alias val="$_OR_"/><path d="M0,25 L0,25 L15,25 A15 12.5 0 0 0 15,0 L0,0 A30 25 0 0 1 0,25 Z" fill="#eebaff" class="cell_$logic_or$jtag_shiftReg.sv:23$2"/><g s:x="2" s:y="5" s:pid="A"/><g s:x="2" s:y="20" s:pid="B"/><g s:x="30" s:y="12.5" s:pid="Y"/></g><g s:type="or" transform="translate(452,125)" s:width="30" s:height="25" id="cell_$logic_or$jtag_shiftReg.sv:36$6"><s:alias val="$or"/><s:alias val="$logic_or"/><s:alias val="$_OR_"/><path d="M0,25 L0,25 L15,25 A15 12.5 0 0 0 15,0 L0,0 A30 25 0 0 1 0,25 Z" fill="#eebaff" class="cell_$logic_or$jtag_shiftReg.sv:36$6"/><g s:x="2" s:y="5" s:pid="A"/><g s:x="2" s:y="20" s:pid="B"/><g s:x="30" s:y="12.5" s:pid="Y"/></g><g s:type="dff" transform="translate(84,45.5)" s:width="30" s:height="40" id="cell_$procdff$23"><s:alias val="$dff"/><s:alias val="$_DFF_"/><s:alias val="$_DFF_P_"/><s:alias val="dff-bus"/><s:alias val="$dff-bus"/><s:alias val="$_DFF_-bus"/><s:alias val="$_DFF_P_-bus"/><rect width="30" height="40" x="0" y="0" fill="#ffef8b" class="cell_$procdff$23"/><path d="M0,35 L5,30 L0,25" class="cell_$procdff$23"/><g s:x="31" s:y="10" s:pid="Q"/><g s:x="-1" s:y="30" s:pid="CLK"/><g s:x="-1" s:y="30" s:pid="C"/><g s:x="-1" s:y="10" s:pid="D"/></g><g s:type="mux-bus" transform="translate(545.3333333333334,12)" s:width="24" s:height="40" id="cell_$procmux$12"><s:alias val="$pmux-bus"/><s:alias val="$mux-bus"/><s:alias val="$_MUX_-bus"/><path d="M8,2 L8,0 L24,8 L24,32 L8,40 L8,38" fill="#ffffff" class="cell_$procmux$12"/><path d="M4,2 L4,0 L22,9 L22,31 L4,40 L4,38" fill="#ffffff" class="cell_$procmux$12"/><path d="M0,0 L20,10 L20,30 L0,40 Z" fill="#ffffff" class="cell_$procmux$12"/><text x="5" y="32" class="nodelabel cell_$procmux$12" s:attribute="">1</text><text x="5" y="13" class="nodelabel cell_$procmux$12" s:attribute="">0</text><g s:x="-1" s:y="10" s:pid="A"/><g s:x="-1" s:y="30" s:pid="B"/><g s:x="12" s:y="38" s:pid="S"/><g s:x="24.5" s:y="20" s:pid="Y"/></g><g s:type="mux-bus" transform="translate(731,22)" s:width="24" s:height="40" id="cell_$procmux$15"><s:alias val="$pmux-bus"/><s:alias val="$mux-bus"/><s:alias val="$_MUX_-bus"/><path d="M8,2 L8,0 L24,8 L24,32 L8,40 L8,38" fill="#ffffff" class="cell_$procmux$15"/><path d="M4,2 L4,0 L22,9 L22,31 L4,40 L4,38" fill="#ffffff" class="cell_$procmux$15"/><path d="M0,0 L20,10 L20,30 L0,40 Z" fill="#ffffff" class="cell_$procmux$15"/><text x="5" y="32" class="nodelabel cell_$procmux$15" s:attribute="">1</text><text x="5" y="13" class="nodelabel cell_$procmux$15" s:attribute="">0</text><g s:x="-1" s:y="10" s:pid="A"/><g s:x="-1" s:y="30" s:pid="B"/><g s:x="12" s:y="38" s:pid="S"/><g s:x="24.5" s:y="20" s:pid="Y"/></g><g s:type="mux-bus" transform="translate(832.1666666666666,32)" s:width="24" s:height="40" id="cell_$procmux$18"><s:alias val="$pmux-bus"/><s:alias val="$mux-bus"/><s:alias val="$_MUX_-bus"/><path d="M8,2 L8,0 L24,8 L24,32 L8,40 L8,38" fill="#ffffff" class="cell_$procmux$18"/><path d="M4,2 L4,0 L22,9 L22,31 L4,40 L4,38" fill="#ffffff" class="cell_$procmux$18"/><path d="M0,0 L20,10 L20,30 L0,40 Z" fill="#ffffff" class="cell_$procmux$18"/><text x="5" y="32" class="nodelabel cell_$procmux$18" s:attribute="">1</text><text x="5" y="13" class="nodelabel cell_$procmux$18" s:attribute="">0</text><g s:x="-1" s:y="10" s:pid="A"/><g s:x="-1" s:y="30" s:pid="B"/><g s:x="12" s:y="38" s:pid="S"/><g s:x="24.5" s:y="20" s:pid="Y"/></g><g s:type="mux-bus" transform="translate(979.5,42)" s:width="24" s:height="40" id="cell_$procmux$21"><s:alias val="$pmux-bus"/><s:alias val="$mux-bus"/><s:alias val="$_MUX_-bus"/><path d="M8,2 L8,0 L24,8 L24,32 L8,40 L8,38" fill="#ffffff" class="cell_$procmux$21"/><path d="M4,2 L4,0 L22,9 L22,31 L4,40 L4,38" fill="#ffffff" class="cell_$procmux$21"/><path d="M0,0 L20,10 L20,30 L0,40 Z" fill="#ffffff" class="cell_$procmux$21"/><text x="5" y="32" class="nodelabel cell_$procmux$21" s:attribute="">1</text><text x="5" y="13" class="nodelabel cell_$procmux$21" s:attribute="">0</text><g s:x="-1" s:y="10" s:pid="A"/><g s:x="-1" s:y="30" s:pid="B"/><g s:x="12" s:y="38" s:pid="S"/><g s:x="24.5" s:y="20" s:pid="Y"/></g><g s:type="mux-bus" transform="translate(731,222.5)" s:width="24" s:height="40" id="cell_$ternary$jtag_shiftReg.sv:29$4"><s:alias val="$pmux-bus"/><s:alias val="$mux-bus"/><s:alias val="$_MUX_-bus"/><path d="M8,2 L8,0 L24,8 L24,32 L8,40 L8,38" fill="#ffffff" class="cell_$ternary$jtag_shiftReg.sv:29$4"/><path d="M4,2 L4,0 L22,9 L22,31 L4,40 L4,38" fill="#ffffff" class="cell_$ternary$jtag_shiftReg.sv:29$4"/><path d="M0,0 L20,10 L20,30 L0,40 Z" fill="#ffffff" class="cell_$ternary$jtag_shiftReg.sv:29$4"/><text x="5" y="32" class="nodelabel cell_$ternary$jtag_shiftReg.sv:29$4" s:attribute="">1</text><text x="5" y="13" class="nodelabel cell_$ternary$jtag_shiftReg.sv:29$4" s:attribute="">0</text><g s:x="-1" s:y="10" s:pid="A"/><g s:x="-1" s:y="30" s:pid="B"/><g s:x="12" s:y="38" s:pid="S"/><g s:x="24.5" s:y="20" s:pid="Y"/></g><g s:type="inputExt" transform="translate(12,65.5)" s:width="30" s:height="20" id="cell_i_tclk"><text x="15" y="-4" class="nodelabel cell_i_tclk" s:attribute="ref">i_tclk</text><s:alias val="$_inputExt_"/><path d="M0,0 L0,20 L15,20 L30,10 L15,0 Z" fill="#8bcaff" class="cell_i_tclk"/><g s:x="30" s:y="10" s:pid="Y"/></g><g s:type="inputExt" transform="translate(895.5,163)" s:width="30" s:height="20" id="cell_i_trst_n"><text x="15" y="-4" class="nodelabel cell_i_trst_n" s:attribute="ref">i_trst_n</text><s:alias val="$_inputExt_"/><path d="M0,0 L0,20 L15,20 L30,10 L15,0 Z" fill="#8bcaff" class="cell_i_trst_n"/><g s:x="30" s:y="10" s:pid="Y"/></g><g s:type="inputExt" transform="translate(256,96.5)" s:width="30" s:height="20" id="cell_i_tdi"><text x="15" y="-4" class="nodelabel cell_i_tdi" s:attribute="ref">i_tdi</text><s:alias val="$_inputExt_"/><path d="M0,0 L0,20 L15,20 L30,10 L15,0 Z" fill="#8bcaff" class="cell_i_tdi"/><g s:x="30" s:y="10" s:pid="Y"/></g><g s:type="outputExt" transform="translate(979.5,437.5)" s:width="30" s:height="20" id="cell_o_tdo"><text x="15" y="-4" class="nodelabel cell_o_tdo" s:attribute="ref">o_tdo</text><s:alias val="$_outputExt_"/><path d="M30,0 L30,20 L15,20 L0,10 L15,0 Z" fill="#169300" class="cell_o_tdo"/><g s:x="0" s:y="10" s:pid="A"/></g><g s:type="inputExt" transform="translate(517,352.5)" s:width="30" s:height="20" id="cell_i_stateIsCaptureDr"><text x="15" y="-4" class="nodelabel cell_i_stateIsCaptureDr" s:attribute="ref">i_stateIsCaptureDr</text><s:alias val="$_inputExt_"/><path d="M0,0 L0,20 L15,20 L30,10 L15,0 Z" fill="#8bcaff" class="cell_i_stateIsCaptureDr"/><g s:x="30" s:y="10" s:pid="Y"/></g><g s:type="inputExt" transform="translate(517,287.5)" s:width="30" s:height="20" id="cell_i_stateIsCaptureIr"><text x="15" y="-4" class="nodelabel cell_i_stateIsCaptureIr" s:attribute="ref">i_stateIsCaptureIr</text><s:alias val="$_inputExt_"/><path d="M0,0 L0,20 L15,20 L30,10 L15,0 Z" fill="#8bcaff" class="cell_i_stateIsCaptureIr"/><g s:x="30" s:y="10" s:pid="Y"/></g><g s:type="inputExt" transform="translate(321,120)" s:width="30" s:height="20" id="cell_i_stateIsShiftDr"><text x="15" y="-4" class="nodelabel cell_i_stateIsShiftDr" s:attribute="ref">i_stateIsShiftDr</text><s:alias val="$_inputExt_"/><path d="M0,0 L0,20 L15,20 L30,10 L15,0 Z" fill="#8bcaff" class="cell_i_stateIsShiftDr"/><g s:x="30" s:y="10" s:pid="Y"/></g><g s:type="inputExt" transform="translate(321,185)" s:width="30" s:height="20" id="cell_i_stateIsShiftIr"><text x="15" y="-4" class="nodelabel cell_i_stateIsShiftIr" s:attribute="ref">i_stateIsShiftIr</text><s:alias val="$_inputExt_"/><path d="M0,0 L0,20 L15,20 L30,10 L15,0 Z" fill="#8bcaff" class="cell_i_stateIsShiftIr"/><g s:x="30" s:y="10" s:pid="Y"/></g><g s:type="inputExt" transform="translate(517,417.5)" s:width="30" s:height="20" id="cell_i_dataReg"><text x="15" y="-4" class="nodelabel cell_i_dataReg" s:attribute="ref">i_dataReg</text><s:alias val="$_inputExt_"/><path d="M0,0 L0,20 L15,20 L30,10 L15,0 Z" fill="#8bcaff" class="cell_i_dataReg"/><g s:x="30" s:y="10" s:pid="Y"/></g><g s:type="outputExt" transform="translate(978.5,502.5)" s:width="30" s:height="20" id="cell_o_shiftReg"><text x="15" y="-4" class="nodelabel cell_o_shiftReg" s:attribute="ref">o_shiftReg</text><s:alias val="$_outputExt_"/><path d="M30,0 L30,20 L15,20 L0,10 L15,0 Z" fill="#169300" class="cell_o_shiftReg"/><g s:x="0" s:y="10" s:pid="A"/></g><g s:type="constant" transform="translate(517,157.5)" s:width="30" s:height="20" id="cell_xxxxxxxxxxxxxxxxxxxxxxxxxxxxxxxx"><text x="15" y="-4" class="nodelabel cell_xxxxxxxxxxxxxxxxxxxxxxxxxxxxxxxx" s:attribute="ref">0xNaN</text><s:alias val="$_constant_"/><rect width="30" height="20" fill="#745bff" class="cell_xxxxxxxxxxxxxxxxxxxxxxxxxxxxxxxx"/><g s:x="31" s:y="10" s:pid="Y"/></g><g s:type="constant" transform="translate(829.5,102)" s:width="30" s:height="20" id="cell_00000000000000000000000000000000"><text x="15" y="-4" class="nodelabel cell_00000000000000000000000000000000" s:attribute="ref">0x0</text><s:alias val="$_constant_"/><rect width="30" height="20" fill="#745bff" class="cell_00000000000000000000000000000000"/><g s:x="31" s:y="10" s:pid="Y"/></g><g s:type="constant" transform="translate(517,222.5)" s:width="30" s:height="20" id="cell_00000000000000000000000000000001"><text x="15" y="-4" class="nodelabel cell_00000000000000000000000000000001" s:attribute="ref">0x1</text><s:alias val="$_constant_"/><rect width="30" height="20" fill="#745bff" class="cell_00000000000000000000000000000001"/><g s:x="31" s:y="10" s:pid="Y"/></g><g s:type="join" transform="translate(360,35)" s:width="5" s:height="40" id="cell_$join$,42,43,44,45,46,47,48,49,50,51,52,53,54,55,56,57,58,59,60,61,62,63,64,65,66,67,68,69,70,71,72,4,"><rect width="5" height="40" class="splitjoinBody" s:generic="body"/><s:alias val="$_join_"/><g s:x="5" s:y="20" s:pid="out"/><g transform="translate(-1,10)" s:x="-1" s:y="10" s:pid="in0"><text x="-3" y="-4" class="inputPortLabel">0:30</text></g><g transform="translate(-1,30)" s:x="-1" s:y="10" s:pid="in0"><text x="-3" y="-4" class="inputPortLabel">31</text></g></g><g s:type="split" transform="translate(190,35)" s:width="5" s:height="40" id="cell_$split$,5,42,43,44,45,46,47,48,49,50,51,52,53,54,55,56,57,58,59,60,61,62,63,64,65,66,67,68,69,70,71,72,"><rect width="5" height="40" class="splitjoinBody" s:generic="body"/><s:alias val="$_split_"/><g s:x="-1" s:y="20" s:pid="in"/><g transform="translate(5,10)" s:x="5" s:y="10" s:pid="out0"><text x="5" y="-4">1:31</text></g><g transform="translate(5,30)" s:x="5" s:y="10" s:pid="out0"><text x="5" y="-4">0</text></g></g><line x1="547" x2="635" y1="362.5" y2="362.5" class="net_6 width_1" style="stroke-width: 1"/><line x1="635" x2="635" y1="362.5" y2="282.5" class="net_6 width_1" style="stroke-width: 1"/><circle cx="635" cy="362.5" r="2" style="fill:#000" class="net_6 width_1"/><line x1="635" x2="662" y1="282.5" y2="282.5" class="net_6 width_1" style="stroke-width: 1"/><line x1="547" x2="743" y1="362.5" y2="362.5" class="net_6 width_1" style="stroke-width: 1"/><line x1="743" x2="743" y1="362.5" y2="260.5" class="net_6 width_1" style="stroke-width: 1"/><line x1="547" x2="662" y1="297.5" y2="297.5" class="net_7 width_1" style="stroke-width: 1"/><line x1="351" x2="454" y1="130" y2="130" class="net_8 width_1" style="stroke-width: 1"/><line x1="351" x2="427" y1="195" y2="195" class="net_9 width_1" style="stroke-width: 1"/><line x1="427" x2="427" y1="195" y2="145" class="net_9 width_1" style="stroke-width: 1"/><line x1="427" x2="454" y1="145" y2="145" class="net_9 width_1" style="stroke-width: 1"/><line x1="42" x2="83" y1="75.5" y2="75.5" class="net_2 width_1" style="stroke-width: 1"/><line x1="1004" x2="1048.5" y1="62" y2="62" class="net_75,76,77,78,79,80,81,82,83,84,85,86,87,88,89,90,91,92,93,94,95,96,97,98,99,100,101,102,103,104,105,106 width_32" style="stroke-width: 2"/><line x1="1048.5" x2="1048.5" y1="62" y2="532.5" class="net_75,76,77,78,79,80,81,82,83,84,85,86,87,88,89,90,91,92,93,94,95,96,97,98,99,100,101,102,103,104,105,106 width_32" style="stroke-width: 2"/><line x1="1048.5" x2="58" y1="532.5" y2="532.5" class="net_75,76,77,78,79,80,81,82,83,84,85,86,87,88,89,90,91,92,93,94,95,96,97,98,99,100,101,102,103,104,105,106 width_32" style="stroke-width: 2"/><line x1="58" x2="58" y1="532.5" y2="55.5" class="net_75,76,77,78,79,80,81,82,83,84,85,86,87,88,89,90,91,92,93,94,95,96,97,98,99,100,101,102,103,104,105,106 width_32" style="stroke-width: 2"/><line x1="58" x2="83" y1="55.5" y2="55.5" class="net_75,76,77,78,79,80,81,82,83,84,85,86,87,88,89,90,91,92,93,94,95,96,97,98,99,100,101,102,103,104,105,106 width_32" style="stroke-width: 2"/><line x1="115" x2="125" y1="55.5" y2="55.5" class="net_5,42,43,44,45,46,47,48,49,50,51,52,53,54,55,56,57,58,59,60,61,62,63,64,65,66,67,68,69,70,71,72 width_32" style="stroke-width: 2"/><line x1="125" x2="125" y1="55.5" y2="22" class="net_5,42,43,44,45,46,47,48,49,50,51,52,53,54,55,56,57,58,59,60,61,62,63,64,65,66,67,68,69,70,71,72 width_32" style="stroke-width: 2"/><circle cx="125" cy="55.5" r="3" style="fill:#000" class="net_5,42,43,44,45,46,47,48,49,50,51,52,53,54,55,56,57,58,59,60,61,62,63,64,65,66,67,68,69,70,71,72 width_32"/><line x1="125" x2="544.3333333333334" y1="22" y2="22" class="net_5,42,43,44,45,46,47,48,49,50,51,52,53,54,55,56,57,58,59,60,61,62,63,64,65,66,67,68,69,70,71,72 width_32" style="stroke-width: 2"/><line x1="115" x2="125" y1="55.5" y2="55.5" class="net_5,42,43,44,45,46,47,48,49,50,51,52,53,54,55,56,57,58,59,60,61,62,63,64,65,66,67,68,69,70,71,72 width_32" style="stroke-width: 2"/><line x1="125" x2="125" y1="55.5" y2="512.5" class="net_5,42,43,44,45,46,47,48,49,50,51,52,53,54,55,56,57,58,59,60,61,62,63,64,65,66,67,68,69,70,71,72 width_32" style="stroke-width: 2"/><line x1="125" x2="978.5" y1="512.5" y2="512.5" class="net_5,42,43,44,45,46,47,48,49,50,51,52,53,54,55,56,57,58,59,60,61,62,63,64,65,66,67,68,69,70,71,72 width_32" style="stroke-width: 2"/><line x1="115" x2="189" y1="55.5" y2="55.5" class="net_5,42,43,44,45,46,47,48,49,50,51,52,53,54,55,56,57,58,59,60,61,62,63,64,65,66,67,68,69,70,71,72 width_32" style="stroke-width: 2"/><line x1="366" x2="492" y1="55.5" y2="55.5" class="net_42,43,44,45,46,47,48,49,50,51,52,53,54,55,56,57,58,59,60,61,62,63,64,65,66,67,68,69,70,71,72,4 width_32" style="stroke-width: 2"/><line x1="492" x2="492" y1="55.5" y2="42" class="net_42,43,44,45,46,47,48,49,50,51,52,53,54,55,56,57,58,59,60,61,62,63,64,65,66,67,68,69,70,71,72,4 width_32" style="stroke-width: 2"/><line x1="492" x2="544.3333333333334" y1="42" y2="42" class="net_42,43,44,45,46,47,48,49,50,51,52,53,54,55,56,57,58,59,60,61,62,63,64,65,66,67,68,69,70,71,72,4 width_32" style="stroke-width: 2"/><line x1="482" x2="557.3333333333334" y1="137.5" y2="137.5" class="net_74 width_1" style="stroke-width: 1"/><line x1="557.3333333333334" x2="557.3333333333334" y1="137.5" y2="50" class="net_74 width_1" style="stroke-width: 1"/><line x1="569.8333333333334" x2="730" y1="32" y2="32" class="net_107,108,109,110,111,112,113,114,115,116,117,118,119,120,121,122,123,124,125,126,127,128,129,130,131,132,133,134,135,136,137,138 width_32" style="stroke-width: 2"/><line x1="548" x2="700" y1="167.5" y2="167.5" class="net_235,236,237,238,239,240,241,242,243,244,245,246,247,248,249,250,251,252,253,254,255,256,257,258,259,260,261,262,263,264,265,266 width_32" style="stroke-width: 2"/><line x1="700" x2="700" y1="167.5" y2="52" class="net_235,236,237,238,239,240,241,242,243,244,245,246,247,248,249,250,251,252,253,254,255,256,257,258,259,260,261,262,263,264,265,266 width_32" style="stroke-width: 2"/><line x1="700" x2="730" y1="52" y2="52" class="net_235,236,237,238,239,240,241,242,243,244,245,246,247,248,249,250,251,252,253,254,255,256,257,258,259,260,261,262,263,264,265,266 width_32" style="stroke-width: 2"/><line x1="690" x2="710" y1="290" y2="290" class="net_73 width_1" style="stroke-width: 1"/><line x1="710" x2="710" y1="290" y2="72" class="net_73 width_1" style="stroke-width: 1"/><line x1="710" x2="743" y1="72" y2="72" class="net_73 width_1" style="stroke-width: 1"/><line x1="743" x2="743" y1="72" y2="60" class="net_73 width_1" style="stroke-width: 1"/><line x1="690" x2="710" y1="290" y2="290" class="net_73 width_1" style="stroke-width: 1"/><line x1="710" x2="710" y1="290" y2="82" class="net_73 width_1" style="stroke-width: 1"/><line x1="710" x2="844.1666666666666" y1="82" y2="82" class="net_73 width_1" style="stroke-width: 1"/><circle cx="710" cy="82" r="2" style="fill:#000" class="net_73 width_1"/><line x1="844.1666666666666" x2="844.1666666666666" y1="82" y2="70" class="net_73 width_1" style="stroke-width: 1"/><line x1="755.5" x2="831.1666666666666" y1="42" y2="42" class="net_139,140,141,142,143,144,145,146,147,148,149,150,151,152,153,154,155,156,157,158,159,160,161,162,163,164,165,166,167,168,169,170 width_32" style="stroke-width: 2"/><line x1="755.5" x2="804.5" y1="242.5" y2="242.5" class="net_171,172,173,174,175,176,177,178,179,180,181,182,183,184,185,186,187,188,189,190,191,192,193,194,195,196,197,198,199,200,201,202 width_32" style="stroke-width: 2"/><line x1="804.5" x2="804.5" y1="242.5" y2="62" class="net_171,172,173,174,175,176,177,178,179,180,181,182,183,184,185,186,187,188,189,190,191,192,193,194,195,196,197,198,199,200,201,202 width_32" style="stroke-width: 2"/><line x1="804.5" x2="831.1666666666666" y1="62" y2="62" class="net_171,172,173,174,175,176,177,178,179,180,181,182,183,184,185,186,187,188,189,190,191,192,193,194,195,196,197,198,199,200,201,202 width_32" style="stroke-width: 2"/><line x1="856.6666666666666" x2="978.5" y1="52" y2="52" class="net_203,204,205,206,207,208,209,210,211,212,213,214,215,216,217,218,219,220,221,222,223,224,225,226,227,228,229,230,231,232,233,234 width_32" style="stroke-width: 2"/><line x1="860.5" x2="953.5" y1="112" y2="112" class="net_267,268,269,270,271,272,273,274,275,276,277,278,279,280,281,282,283,284,285,286,287,288,289,290,291,292,293,294,295,296,297,298 width_32" style="stroke-width: 2"/><line x1="953.5" x2="953.5" y1="112" y2="72" class="net_267,268,269,270,271,272,273,274,275,276,277,278,279,280,281,282,283,284,285,286,287,288,289,290,291,292,293,294,295,296,297,298 width_32" style="stroke-width: 2"/><line x1="953.5" x2="978.5" y1="72" y2="72" class="net_267,268,269,270,271,272,273,274,275,276,277,278,279,280,281,282,283,284,285,286,287,288,289,290,291,292,293,294,295,296,297,298 width_32" style="stroke-width: 2"/><line x1="925.5" x2="991.5" y1="173" y2="173" class="net_3 width_1" style="stroke-width: 1"/><line x1="991.5" x2="991.5" y1="173" y2="80" class="net_3 width_1" style="stroke-width: 1"/><line x1="548" x2="730" y1="232.5" y2="232.5" class="net_299,300,301,302,303,304,305,306,307,308,309,310,311,312,313,314,315,316,317,318,319,320,321,322,323,324,325,326,327,328,329,330 width_32" style="stroke-width: 2"/><line x1="547" x2="720" y1="427.5" y2="427.5" class="net_10,11,12,13,14,15,16,17,18,19,20,21,22,23,24,25,26,27,28,29,30,31,32,33,34,35,36,37,38,39,40,41 width_32" style="stroke-width: 2"/><line x1="720" x2="720" y1="427.5" y2="252.5" class="net_10,11,12,13,14,15,16,17,18,19,20,21,22,23,24,25,26,27,28,29,30,31,32,33,34,35,36,37,38,39,40,41 width_32" style="stroke-width: 2"/><line x1="720" x2="730" y1="252.5" y2="252.5" class="net_10,11,12,13,14,15,16,17,18,19,20,21,22,23,24,25,26,27,28,29,30,31,32,33,34,35,36,37,38,39,40,41 width_32" style="stroke-width: 2"/><line x1="196" x2="231" y1="65.5" y2="65.5" class="net_5 width_1" style="stroke-width: 1"/><line x1="231" x2="231" y1="65.5" y2="447.5" class="net_5 width_1" style="stroke-width: 1"/><line x1="231" x2="979.5" y1="447.5" y2="447.5" class="net_5 width_1" style="stroke-width: 1"/><line x1="196" x2="359" y1="45.5" y2="45.5" class="net_42,43,44,45,46,47,48,49,50,51,52,53,54,55,56,57,58,59,60,61,62,63,64,65,66,67,68,69,70,71,72 width_31" style="stroke-width: 2"/><line x1="286" x2="296" y1="106.5" y2="106.5" class="net_4 width_1" style="stroke-width: 1"/><line x1="296" x2="296" y1="106.5" y2="65.5" class="net_4 width_1" style="stroke-width: 1"/><line x1="296" x2="359" y1="65.5" y2="65.5" class="net_4 width_1" style="stroke-width: 1"/><rect x="570" y="527.5" width="22" height="9" class="net_75,76,77,78,79,80,81,82,83,84,85,86,87,88,89,90,91,92,93,94,95,96,97,98,99,100,101,102,103,104,105,106 width_32 busLabel_32" style="fill: white; stroke: none"/><text x="569" y="535.5" class="net_75,76,77,78,79,80,81,82,83,84,85,86,87,88,89,90,91,92,93,94,95,96,97,98,99,100,101,102,103,104,105,106 width_32 busLabel_32">/32/</text><rect x="151" y="50.5" width="22" height="9" class="net_5,42,43,44,45,46,47,48,49,50,51,52,53,54,55,56,57,58,59,60,61,62,63,64,65,66,67,68,69,70,71,72 width_32 busLabel_32" style="fill: white; stroke: none"/><text x="150" y="58.5" class="net_5,42,43,44,45,46,47,48,49,50,51,52,53,54,55,56,57,58,59,60,61,62,63,64,65,66,67,68,69,70,71,72 width_32 busLabel_32">/32/</text><rect x="151" y="50.5" width="22" height="9" class="net_5,42,43,44,45,46,47,48,49,50,51,52,53,54,55,56,57,58,59,60,61,62,63,64,65,66,67,68,69,70,71,72 width_32 busLabel_32" style="fill: white; stroke: none"/><text x="150" y="58.5" class="net_5,42,43,44,45,46,47,48,49,50,51,52,53,54,55,56,57,58,59,60,61,62,63,64,65,66,67,68,69,70,71,72 width_32 busLabel_32">/32/</text><rect x="151" y="50.5" width="22" height="9" class="net_5,42,43,44,45,46,47,48,49,50,51,52,53,54,55,56,57,58,59,60,61,62,63,64,65,66,67,68,69,70,71,72 width_32 busLabel_32" style="fill: white; stroke: none"/><text x="150" y="58.5" class="net_5,42,43,44,45,46,47,48,49,50,51,52,53,54,55,56,57,58,59,60,61,62,63,64,65,66,67,68,69,70,71,72 width_32 busLabel_32">/32/</text><rect x="466" y="50.5" width="22" height="9" class="net_42,43,44,45,46,47,48,49,50,51,52,53,54,55,56,57,58,59,60,61,62,63,64,65,66,67,68,69,70,71,72,4 width_32 busLabel_32" style="fill: white; stroke: none"/><text x="465" y="58.5" class="net_42,43,44,45,46,47,48,49,50,51,52,53,54,55,56,57,58,59,60,61,62,63,64,65,66,67,68,69,70,71,72,4 width_32 busLabel_32">/32/</text><rect x="674" y="27" width="22" height="9" class="net_107,108,109,110,111,112,113,114,115,116,117,118,119,120,121,122,123,124,125,126,127,128,129,130,131,132,133,134,135,136,137,138 width_32 busLabel_32" style="fill: white; stroke: none"/><text x="673" y="35" class="net_107,108,109,110,111,112,113,114,115,116,117,118,119,120,121,122,123,124,125,126,127,128,129,130,131,132,133,134,135,136,137,138 width_32 busLabel_32">/32/</text><rect x="674" y="162.5" width="22" height="9" class="net_235,236,237,238,239,240,241,242,243,244,245,246,247,248,249,250,251,252,253,254,255,256,257,258,259,260,261,262,263,264,265,266 width_32 busLabel_32" style="fill: white; stroke: none"/><text x="673" y="170.5" class="net_235,236,237,238,239,240,241,242,243,244,245,246,247,248,249,250,251,252,253,254,255,256,257,258,259,260,261,262,263,264,265,266 width_32 busLabel_32">/32/</text><rect x="791.5" y="37" width="22" height="9" class="net_139,140,141,142,143,144,145,146,147,148,149,150,151,152,153,154,155,156,157,158,159,160,161,162,163,164,165,166,167,168,169,170 width_32 busLabel_32" style="fill: white; stroke: none"/><text x="790.5" y="45" class="net_139,140,141,142,143,144,145,146,147,148,149,150,151,152,153,154,155,156,157,158,159,160,161,162,163,164,165,166,167,168,169,170 width_32 busLabel_32">/32/</text><rect x="791.5" y="237.5" width="22" height="9" class="net_171,172,173,174,175,176,177,178,179,180,181,182,183,184,185,186,187,188,189,190,191,192,193,194,195,196,197,198,199,200,201,202 width_32 busLabel_32" style="fill: white; stroke: none"/><text x="790.5" y="245.5" class="net_171,172,173,174,175,176,177,178,179,180,181,182,183,184,185,186,187,188,189,190,191,192,193,194,195,196,197,198,199,200,201,202 width_32 busLabel_32">/32/</text><rect x="918.5" y="47" width="22" height="9" class="net_203,204,205,206,207,208,209,210,211,212,213,214,215,216,217,218,219,220,221,222,223,224,225,226,227,228,229,230,231,232,233,234 width_32 busLabel_32" style="fill: white; stroke: none"/><text x="917.5" y="55" class="net_203,204,205,206,207,208,209,210,211,212,213,214,215,216,217,218,219,220,221,222,223,224,225,226,227,228,229,230,231,232,233,234 width_32 busLabel_32">/32/</text><rect x="918.5" y="107" width="22" height="9" class="net_267,268,269,270,271,272,273,274,275,276,277,278,279,280,281,282,283,284,285,286,287,288,289,290,291,292,293,294,295,296,297,298 width_32 busLabel_32" style="fill: white; stroke: none"/><text x="917.5" y="115" class="net_267,268,269,270,271,272,273,274,275,276,277,278,279,280,281,282,283,284,285,286,287,288,289,290,291,292,293,294,295,296,297,298 width_32 busLabel_32">/32/</text><rect x="674" y="227.5" width="22" height="9" class="net_299,300,301,302,303,304,305,306,307,308,309,310,311,312,313,314,315,316,317,318,319,320,321,322,323,324,325,326,327,328,329,330 width_32 busLabel_32" style="fill: white; stroke: none"/><text x="673" y="235.5" class="net_299,300,301,302,303,304,305,306,307,308,309,310,311,312,313,314,315,316,317,318,319,320,321,322,323,324,325,326,327,328,329,330 width_32 busLabel_32">/32/</text><rect x="674" y="422.5" width="22" height="9" class="net_10,11,12,13,14,15,16,17,18,19,20,21,22,23,24,25,26,27,28,29,30,31,32,33,34,35,36,37,38,39,40,41 width_32 busLabel_32" style="fill: white; stroke: none"/><text x="673" y="430.5" class="net_10,11,12,13,14,15,16,17,18,19,20,21,22,23,24,25,26,27,28,29,30,31,32,33,34,35,36,37,38,39,40,41 width_32 busLabel_32">/32/</text><rect x="270" y="40.5" width="22" height="9" class="net_42,43,44,45,46,47,48,49,50,51,52,53,54,55,56,57,58,59,60,61,62,63,64,65,66,67,68,69,70,71,72 width_31 busLabel_31" style="fill: white; stroke: none"/><text x="269" y="48.5" class="net_42,43,44,45,46,47,48,49,50,51,52,53,54,55,56,57,58,59,60,61,62,63,64,65,66,67,68,69,70,71,72 width_31 busLabel_31">/31/</text></svg>