<svg xmlns="http://www.w3.org/2000/svg" xmlns:xlink="http://www.w3.org/1999/xlink" xmlns:s="https://github.com/nturley/netlistsvg" width="843.5" height="335"><style>svg {
  stroke:#000;
  fill:none;
}
text {
  fill:#000;
  stroke:none;
  font-size:10px;
  font-weight: bold;
  font-family: "Courier New", monospace;
}
line {
    stroke-linecap: round;
}
.nodelabel {
  text-anchor: middle;
}
.inputPortLabel {
  text-anchor: end;
}
.splitjoinBody {
  fill:#000;
}</style><g s:type="not" transform="translate(762.5,67)" s:width="30" s:height="20" id="cell_$logic_not$jtag_instrReg.sv:19$2"><s:alias val="$_NOT_"/><s:alias val="$not"/><s:alias val="$logic_not"/><path d="M0,0 L0,20 L20,10 Z" fill="#eebaff" class="cell_$logic_not$jtag_instrReg.sv:19$2"/><circle cx="24" cy="10" r="3" fill="#eebaff" class="cell_$logic_not$jtag_instrReg.sv:19$2"/><g s:x="-1" s:y="10" s:pid="A"/><g s:x="27" s:y="10" s:pid="Y"/></g><g s:type="generic" transform="translate(517.5,131.5)" s:width="30" s:height="40" id="cell_$procdff$14"><text x="15" y="-4" class="nodelabel cell_$procdff$14" s:attribute="ref">$adff-bus</text><rect width="30" height="60" s:generic="body" fill="#ffae46" rx="0" class="cell_$procdff$14"/><g transform="translate(0,10)" s:x="0" s:y="10" s:pid="in0" id="port_$procdff$14~ARST"><text x="-3" y="-4" class="inputPortLabel cell_$procdff$14">ARST</text></g><g transform="translate(0,30)" s:x="0" s:y="10" s:pid="in0" id="port_$procdff$14~CLK"><text x="-3" y="-4" class="inputPortLabel cell_$procdff$14">CLK</text></g><g transform="translate(0,50)" s:x="0" s:y="10" s:pid="in0" id="port_$procdff$14~D"><text x="-3" y="-4" class="inputPortLabel cell_$procdff$14">D</text></g><g transform="translate(30,10)" s:x="30" s:y="10" s:pid="out0" id="port_$procdff$14~Q"><text x="5" y="-4" style="fill:#000; stroke:none" class="cell_$procdff$14">Q</text></g></g><g s:type="mux-bus" transform="translate(350,191)" s:width="24" s:height="40" id="cell_$procmux$12"><s:alias val="$pmux-bus"/><s:alias val="$mux-bus"/><s:alias val="$_MUX_-bus"/><path d="M8,2 L8,0 L24,8 L24,32 L8,40 L8,38" fill="#ffffff" class="cell_$procmux$12"/><path d="M4,2 L4,0 L22,9 L22,31 L4,40 L4,38" fill="#ffffff" class="cell_$procmux$12"/><path d="M0,0 L20,10 L20,30 L0,40 Z" fill="#ffffff" class="cell_$procmux$12"/><text x="5" y="32" class="nodelabel cell_$procmux$12" s:attribute="">1</text><text x="5" y="13" class="nodelabel cell_$procmux$12" s:attribute="">0</text><g s:x="-1" s:y="10" s:pid="A"/><g s:x="-1" s:y="30" s:pid="B"/><g s:x="12" s:y="38" s:pid="S"/><g s:x="24.5" s:y="20" s:pid="Y"/></g><g s:type="mux-bus" transform="translate(762.5,187)" s:width="24" s:height="40" id="cell_$procmux$6"><s:alias val="$pmux-bus"/><s:alias val="$mux-bus"/><s:alias val="$_MUX_-bus"/><path d="M8,2 L8,0 L24,8 L24,32 L8,40 L8,38" fill="#ffffff" class="cell_$procmux$6"/><path d="M4,2 L4,0 L22,9 L22,31 L4,40 L4,38" fill="#ffffff" class="cell_$procmux$6"/><path d="M0,0 L20,10 L20,30 L0,40 Z" fill="#ffffff" class="cell_$procmux$6"/><text x="5" y="32" class="nodelabel cell_$procmux$6" s:attribute="">1</text><text x="5" y="13" class="nodelabel cell_$procmux$6" s:attribute="">0</text><g s:x="-1" s:y="10" s:pid="A"/><g s:x="-1" s:y="30" s:pid="B"/><g s:x="12" s:y="38" s:pid="S"/><g s:x="24.5" s:y="20" s:pid="Y"/></g><g s:type="mux-bus" transform="translate(229,181)" s:width="24" s:height="40" id="cell_$procmux$9"><s:alias val="$pmux-bus"/><s:alias val="$mux-bus"/><s:alias val="$_MUX_-bus"/><path d="M8,2 L8,0 L24,8 L24,32 L8,40 L8,38" fill="#ffffff" class="cell_$procmux$9"/><path d="M4,2 L4,0 L22,9 L22,31 L4,40 L4,38" fill="#ffffff" class="cell_$procmux$9"/><path d="M0,0 L20,10 L20,30 L0,40 Z" fill="#ffffff" class="cell_$procmux$9"/><text x="5" y="32" class="nodelabel cell_$procmux$9" s:attribute="">1</text><text x="5" y="13" class="nodelabel cell_$procmux$9" s:attribute="">0</text><g s:x="-1" s:y="10" s:pid="A"/><g s:x="-1" s:y="30" s:pid="B"/><g s:x="12" s:y="38" s:pid="S"/><g s:x="24.5" s:y="20" s:pid="Y"/></g><g s:type="inputExt" transform="translate(409.5,152)" s:width="30" s:height="20" id="cell_i_tclk"><text x="15" y="-4" class="nodelabel cell_i_tclk" s:attribute="ref">i_tclk</text><s:alias val="$_inputExt_"/><path d="M0,0 L0,20 L15,20 L30,10 L15,0 Z" fill="#8bcaff" class="cell_i_tclk"/><g s:x="30" s:y="10" s:pid="Y"/></g><g s:type="inputExt" transform="translate(409.5,67)" s:width="30" s:height="20" id="cell_i_trst_n"><text x="15" y="-4" class="nodelabel cell_i_trst_n" s:attribute="ref">i_trst_n</text><s:alias val="$_inputExt_"/><path d="M0,0 L0,20 L15,20 L30,10 L15,0 Z" fill="#8bcaff" class="cell_i_trst_n"/><g s:x="30" s:y="10" s:pid="Y"/></g><g s:type="inputExt" transform="translate(78,262)" s:width="30" s:height="20" id="cell_i_stateIsUpdateIr"><text x="15" y="-4" class="nodelabel cell_i_stateIsUpdateIr" s:attribute="ref">i_stateIsUpdateIr</text><s:alias val="$_inputExt_"/><path d="M0,0 L0,20 L15,20 L30,10 L15,0 Z" fill="#8bcaff" class="cell_i_stateIsUpdateIr"/><g s:x="30" s:y="10" s:pid="Y"/></g><g s:type="inputExt" transform="translate(618.5,300.5)" s:width="30" s:height="20" id="cell_i_stateIsCaptureIr"><text x="15" y="-4" class="nodelabel cell_i_stateIsCaptureIr" s:attribute="ref">i_stateIsCaptureIr</text><s:alias val="$_inputExt_"/><path d="M0,0 L0,20 L15,20 L30,10 L15,0 Z" fill="#8bcaff" class="cell_i_stateIsCaptureIr"/><g s:x="30" s:y="10" s:pid="Y"/></g><g s:type="inputExt" transform="translate(215,292)" s:width="30" s:height="20" id="cell_i_shiftReg"><text x="15" y="-4" class="nodelabel cell_i_shiftReg" s:attribute="ref">i_shiftReg</text><s:alias val="$_inputExt_"/><path d="M0,0 L0,20 L15,20 L30,10 L15,0 Z" fill="#8bcaff" class="cell_i_shiftReg"/><g s:x="30" s:y="10" s:pid="Y"/></g><g s:type="outputExt" transform="translate(761.5,132)" s:width="30" s:height="20" id="cell_o_instrReg"><text x="15" y="-4" class="nodelabel cell_o_instrReg" s:attribute="ref">o_instrReg</text><s:alias val="$_outputExt_"/><path d="M30,0 L30,20 L15,20 L0,10 L15,0 Z" fill="#169300" class="cell_o_instrReg"/><g s:x="0" s:y="10" s:pid="A"/></g><g s:type="constant" transform="translate(517.5,239.5)" s:width="30" s:height="20" id="cell_00000000000000000000000000000001"><text x="15" y="-4" class="nodelabel cell_00000000000000000000000000000001" s:attribute="ref">0x1</text><s:alias val="$_constant_"/><rect width="30" height="20" fill="#745bff" class="cell_00000000000000000000000000000001"/><g s:x="31" s:y="10" s:pid="Y"/></g><g s:type="constant" transform="translate(12,201)" s:width="30" s:height="20" id="cell_xxxxxxxxxxxxxxxxxxxxxxxxxxxxxxxx"><text x="15" y="-4" class="nodelabel cell_xxxxxxxxxxxxxxxxxxxxxxxxxxxxxxxx" s:attribute="ref">0xNaN</text><s:alias val="$_constant_"/><rect width="30" height="20" fill="#745bff" class="cell_xxxxxxxxxxxxxxxxxxxxxxxxxxxxxxxx"/><g s:x="31" s:y="10" s:pid="Y"/></g><line x1="439.5" x2="761.5" y1="77" y2="77" class="net_3 width_1" style="stroke-width: 1"/><line x1="439.5" x2="467.5" y1="77" y2="77" class="net_3 width_1" style="stroke-width: 1"/><line x1="467.5" x2="467.5" y1="77" y2="142" class="net_3 width_1" style="stroke-width: 1"/><circle cx="467.5" cy="77" r="2" style="fill:#000" class="net_3 width_1"/><line x1="467.5" x2="517.5" y1="142" y2="142" class="net_3 width_1" style="stroke-width: 1"/><line x1="439.5" x2="516.5" y1="162" y2="162" class="net_2 width_1" style="stroke-width: 1"/><line x1="374.5" x2="467.5" y1="211" y2="211" class="net_71,72,73,74,75,76,77,78,79,80,81,82,83,84,85,86,87,88,89,90,91,92,93,94,95,96,97,98,99,100,101,102 width_32" style="stroke-width: 2"/><line x1="467.5" x2="467.5" y1="211" y2="182" class="net_71,72,73,74,75,76,77,78,79,80,81,82,83,84,85,86,87,88,89,90,91,92,93,94,95,96,97,98,99,100,101,102 width_32" style="stroke-width: 2"/><line x1="467.5" x2="516.5" y1="182" y2="182" class="net_71,72,73,74,75,76,77,78,79,80,81,82,83,84,85,86,87,88,89,90,91,92,93,94,95,96,97,98,99,100,101,102 width_32" style="stroke-width: 2"/><line x1="253.5" x2="349" y1="201" y2="201" class="net_103,104,105,106,107,108,109,110,111,112,113,114,115,116,117,118,119,120,121,122,123,124,125,126,127,128,129,130,131,132,133,134 width_32" style="stroke-width: 2"/><line x1="245" x2="324" y1="302" y2="302" class="net_6,7,8,9,10,11,12,13,14,15,16,17,18,19,20,21,22,23,24,25,26,27,28,29,30,31,32,33,34,35,36,37 width_32" style="stroke-width: 2"/><line x1="324" x2="324" y1="302" y2="221" class="net_6,7,8,9,10,11,12,13,14,15,16,17,18,19,20,21,22,23,24,25,26,27,28,29,30,31,32,33,34,35,36,37 width_32" style="stroke-width: 2"/><line x1="324" x2="349" y1="221" y2="221" class="net_6,7,8,9,10,11,12,13,14,15,16,17,18,19,20,21,22,23,24,25,26,27,28,29,30,31,32,33,34,35,36,37 width_32" style="stroke-width: 2"/><line x1="108" x2="190" y1="272" y2="272" class="net_4 width_1" style="stroke-width: 1"/><line x1="190" x2="190" y1="272" y2="322" class="net_4 width_1" style="stroke-width: 1"/><line x1="190" x2="362" y1="322" y2="322" class="net_4 width_1" style="stroke-width: 1"/><circle cx="190" cy="272" r="2" style="fill:#000" class="net_4 width_1"/><line x1="362" x2="362" y1="322" y2="229" class="net_4 width_1" style="stroke-width: 1"/><line x1="108" x2="241" y1="272" y2="272" class="net_4 width_1" style="stroke-width: 1"/><line x1="241" x2="241" y1="272" y2="219" class="net_4 width_1" style="stroke-width: 1"/><line x1="548.5" x2="593.5" y1="142" y2="142" class="net_38,39,40,41,42,43,44,45,46,47,48,49,50,51,52,53,54,55,56,57,58,59,60,61,62,63,64,65,66,67,68,69 width_32" style="stroke-width: 2"/><line x1="593.5" x2="593.5" y1="142" y2="197" class="net_38,39,40,41,42,43,44,45,46,47,48,49,50,51,52,53,54,55,56,57,58,59,60,61,62,63,64,65,66,67,68,69 width_32" style="stroke-width: 2"/><circle cx="593.5" cy="142" r="3" style="fill:#000" class="net_38,39,40,41,42,43,44,45,46,47,48,49,50,51,52,53,54,55,56,57,58,59,60,61,62,63,64,65,66,67,68,69 width_32"/><line x1="593.5" x2="761.5" y1="197" y2="197" class="net_38,39,40,41,42,43,44,45,46,47,48,49,50,51,52,53,54,55,56,57,58,59,60,61,62,63,64,65,66,67,68,69 width_32" style="stroke-width: 2"/><line x1="548.5" x2="761.5" y1="142" y2="142" class="net_38,39,40,41,42,43,44,45,46,47,48,49,50,51,52,53,54,55,56,57,58,59,60,61,62,63,64,65,66,67,68,69 width_32" style="stroke-width: 2"/><line x1="548.5" x2="736.5" y1="249.5" y2="249.5" class="net_167,168,169,170,171,172,173,174,175,176,177,178,179,180,181,182,183,184,185,186,187,188,189,190,191,192,193,194,195,196,197,198 width_32" style="stroke-width: 2"/><line x1="736.5" x2="736.5" y1="249.5" y2="217" class="net_167,168,169,170,171,172,173,174,175,176,177,178,179,180,181,182,183,184,185,186,187,188,189,190,191,192,193,194,195,196,197,198 width_32" style="stroke-width: 2"/><line x1="736.5" x2="761.5" y1="217" y2="217" class="net_167,168,169,170,171,172,173,174,175,176,177,178,179,180,181,182,183,184,185,186,187,188,189,190,191,192,193,194,195,196,197,198 width_32" style="stroke-width: 2"/><line x1="648.5" x2="774.5" y1="310.5" y2="310.5" class="net_5 width_1" style="stroke-width: 1"/><line x1="774.5" x2="774.5" y1="310.5" y2="225" class="net_5 width_1" style="stroke-width: 1"/><line x1="787" x2="831.5" y1="207" y2="207" class="net_135,136,137,138,139,140,141,142,143,144,145,146,147,148,149,150,151,152,153,154,155,156,157,158,159,160,161,162,163,164,165,166 width_32" style="stroke-width: 2"/><line x1="831.5" x2="831.5" y1="207" y2="16" class="net_135,136,137,138,139,140,141,142,143,144,145,146,147,148,149,150,151,152,153,154,155,156,157,158,159,160,161,162,163,164,165,166 width_32" style="stroke-width: 2"/><line x1="831.5" x2="190" y1="16" y2="16" class="net_135,136,137,138,139,140,141,142,143,144,145,146,147,148,149,150,151,152,153,154,155,156,157,158,159,160,161,162,163,164,165,166 width_32" style="stroke-width: 2"/><line x1="190" x2="190" y1="16" y2="191" class="net_135,136,137,138,139,140,141,142,143,144,145,146,147,148,149,150,151,152,153,154,155,156,157,158,159,160,161,162,163,164,165,166 width_32" style="stroke-width: 2"/><line x1="190" x2="228" y1="191" y2="191" class="net_135,136,137,138,139,140,141,142,143,144,145,146,147,148,149,150,151,152,153,154,155,156,157,158,159,160,161,162,163,164,165,166 width_32" style="stroke-width: 2"/><line x1="43" x2="228" y1="211" y2="211" class="net_199,200,201,202,203,204,205,206,207,208,209,210,211,212,213,214,215,216,217,218,219,220,221,222,223,224,225,226,227,228,229,230 width_32" style="stroke-width: 2"/><rect x="432.5" y="206" width="22" height="9" class="net_71,72,73,74,75,76,77,78,79,80,81,82,83,84,85,86,87,88,89,90,91,92,93,94,95,96,97,98,99,100,101,102 width_32 busLabel_32" style="fill: white; stroke: none"/><text x="431.5" y="214" class="net_71,72,73,74,75,76,77,78,79,80,81,82,83,84,85,86,87,88,89,90,91,92,93,94,95,96,97,98,99,100,101,102 width_32 busLabel_32">/32/</text><rect x="311" y="196" width="22" height="9" class="net_103,104,105,106,107,108,109,110,111,112,113,114,115,116,117,118,119,120,121,122,123,124,125,126,127,128,129,130,131,132,133,134 width_32 busLabel_32" style="fill: white; stroke: none"/><text x="310" y="204" class="net_103,104,105,106,107,108,109,110,111,112,113,114,115,116,117,118,119,120,121,122,123,124,125,126,127,128,129,130,131,132,133,134 width_32 busLabel_32">/32/</text><rect x="311" y="297" width="22" height="9" class="net_6,7,8,9,10,11,12,13,14,15,16,17,18,19,20,21,22,23,24,25,26,27,28,29,30,31,32,33,34,35,36,37 width_32 busLabel_32" style="fill: white; stroke: none"/><text x="310" y="305" class="net_6,7,8,9,10,11,12,13,14,15,16,17,18,19,20,21,22,23,24,25,26,27,28,29,30,31,32,33,34,35,36,37 width_32 busLabel_32">/32/</text><rect x="671.5" y="137" width="22" height="9" class="net_38,39,40,41,42,43,44,45,46,47,48,49,50,51,52,53,54,55,56,57,58,59,60,61,62,63,64,65,66,67,68,69 width_32 busLabel_32" style="fill: white; stroke: none"/><text x="670.5" y="145" class="net_38,39,40,41,42,43,44,45,46,47,48,49,50,51,52,53,54,55,56,57,58,59,60,61,62,63,64,65,66,67,68,69 width_32 busLabel_32">/32/</text><rect x="671.5" y="137" width="22" height="9" class="net_38,39,40,41,42,43,44,45,46,47,48,49,50,51,52,53,54,55,56,57,58,59,60,61,62,63,64,65,66,67,68,69 width_32 busLabel_32" style="fill: white; stroke: none"/><text x="670.5" y="145" class="net_38,39,40,41,42,43,44,45,46,47,48,49,50,51,52,53,54,55,56,57,58,59,60,61,62,63,64,65,66,67,68,69 width_32 busLabel_32">/32/</text><rect x="671.5" y="244.5" width="22" height="9" class="net_167,168,169,170,171,172,173,174,175,176,177,178,179,180,181,182,183,184,185,186,187,188,189,190,191,192,193,194,195,196,197,198 width_32 busLabel_32" style="fill: white; stroke: none"/><text x="670.5" y="252.5" class="net_167,168,169,170,171,172,173,174,175,176,177,178,179,180,181,182,183,184,185,186,187,188,189,190,191,192,193,194,195,196,197,198 width_32 busLabel_32">/32/</text><rect x="432.5" y="11" width="22" height="9" class="net_135,136,137,138,139,140,141,142,143,144,145,146,147,148,149,150,151,152,153,154,155,156,157,158,159,160,161,162,163,164,165,166 width_32 busLabel_32" style="fill: white; stroke: none"/><text x="431.5" y="19" class="net_135,136,137,138,139,140,141,142,143,144,145,146,147,148,149,150,151,152,153,154,155,156,157,158,159,160,161,162,163,164,165,166 width_32 busLabel_32">/32/</text><rect x="128" y="206" width="22" height="9" class="net_199,200,201,202,203,204,205,206,207,208,209,210,211,212,213,214,215,216,217,218,219,220,221,222,223,224,225,226,227,228,229,230 width_32 busLabel_32" style="fill: white; stroke: none"/><text x="127" y="214" class="net_199,200,201,202,203,204,205,206,207,208,209,210,211,212,213,214,215,216,217,218,219,220,221,222,223,224,225,226,227,228,229,230 width_32 busLabel_32">/32/</text></svg>