<svg xmlns="http://www.w3.org/2000/svg" xmlns:xlink="http://www.w3.org/1999/xlink" xmlns:s="https://github.com/nturley/netlistsvg" width="977.5" height="635.5"><style>svg {
  stroke:#000;
  fill:none;
}
text {
  fill:#000;
  stroke:none;
  font-size:10px;
  font-weight: bold;
  font-family: "Courier New", monospace;
}
line {
    stroke-linecap: round;
}
.nodelabel {
  text-anchor: middle;
}
.inputPortLabel {
  text-anchor: end;
}
.splitjoinBody {
  fill:#000;
}</style><g s:type="not" transform="translate(896.5,22)" s:width="30" s:height="20" id="cell_$logic_not$jtag_shiftReg.sv:44$8"><s:alias val="$_NOT_"/><s:alias val="$not"/><s:alias val="$logic_not"/><path d="M0,0 L0,20 L20,10 Z" fill="#eebaff" class="cell_$logic_not$jtag_shiftReg.sv:44$8"/><circle cx="24" cy="10" r="3" fill="#eebaff" class="cell_$logic_not$jtag_shiftReg.sv:44$8"/><g s:x="-1" s:y="10" s:pid="A"/><g s:x="27" s:y="10" s:pid="Y"/></g><g s:type="or" transform="translate(731,555)" s:width="30" s:height="25" id="cell_$logic_or$jtag_shiftReg.sv:25$2"><s:alias val="$or"/><s:alias val="$logic_or"/><s:alias val="$_OR_"/><path d="M0,25 L0,25 L15,25 A15 12.5 0 0 0 15,0 L0,0 A30 25 0 0 1 0,25 Z" fill="#eebaff" class="cell_$logic_or$jtag_shiftReg.sv:25$2"/><g s:x="2" s:y="5" s:pid="A"/><g s:x="2" s:y="20" s:pid="B"/><g s:x="30" s:y="12.5" s:pid="Y"/></g><g s:type="or" transform="translate(523,272.5)" s:width="30" s:height="25" id="cell_$logic_or$jtag_shiftReg.sv:38$6"><s:alias val="$or"/><s:alias val="$logic_or"/><s:alias val="$_OR_"/><path d="M0,25 L0,25 L15,25 A15 12.5 0 0 0 15,0 L0,0 A30 25 0 0 1 0,25 Z" fill="#eebaff" class="cell_$logic_or$jtag_shiftReg.sv:38$6"/><g s:x="2" s:y="5" s:pid="A"/><g s:x="2" s:y="20" s:pid="B"/><g s:x="30" s:y="12.5" s:pid="Y"/></g><g s:type="generic" transform="translate(120,86.5)" s:width="30" s:height="40" id="cell_$procdff$21"><text x="15" y="-4" class="nodelabel cell_$procdff$21" s:attribute="ref">$adff-bus</text><rect width="30" height="60" s:generic="body" fill="#ffae46" rx="0" class="cell_$procdff$21"/><g transform="translate(0,10)" s:x="0" s:y="10" s:pid="in0" id="port_$procdff$21~ARST"><text x="-3" y="-4" class="inputPortLabel cell_$procdff$21">ARST</text></g><g transform="translate(0,30)" s:x="0" s:y="10" s:pid="in0" id="port_$procdff$21~CLK"><text x="-3" y="-4" class="inputPortLabel cell_$procdff$21">CLK</text></g><g transform="translate(0,50)" s:x="0" s:y="10" s:pid="in0" id="port_$procdff$21~D"><text x="-3" y="-4" class="inputPortLabel cell_$procdff$21">D</text></g><g transform="translate(30,10)" s:x="30" s:y="10" s:pid="out0" id="port_$procdff$21~Q"><text x="5" y="-4" style="fill:#000; stroke:none" class="cell_$procdff$21">Q</text></g></g><g s:type="mux-bus" transform="translate(616.3333333333334,122)" s:width="24" s:height="40" id="cell_$procmux$13"><s:alias val="$pmux-bus"/><s:alias val="$mux-bus"/><s:alias val="$_MUX_-bus"/><path d="M8,2 L8,0 L24,8 L24,32 L8,40 L8,38" fill="#ffffff" class="cell_$procmux$13"/><path d="M4,2 L4,0 L22,9 L22,31 L4,40 L4,38" fill="#ffffff" class="cell_$procmux$13"/><path d="M0,0 L20,10 L20,30 L0,40 Z" fill="#ffffff" class="cell_$procmux$13"/><text x="5" y="32" class="nodelabel cell_$procmux$13" s:attribute="">1</text><text x="5" y="13" class="nodelabel cell_$procmux$13" s:attribute="">0</text><g s:x="-1" s:y="10" s:pid="A"/><g s:x="-1" s:y="30" s:pid="B"/><g s:x="12" s:y="38" s:pid="S"/><g s:x="24.5" s:y="20" s:pid="Y"/></g><g s:type="mux-bus" transform="translate(797,132)" s:width="24" s:height="40" id="cell_$procmux$16"><s:alias val="$pmux-bus"/><s:alias val="$mux-bus"/><s:alias val="$_MUX_-bus"/><path d="M8,2 L8,0 L24,8 L24,32 L8,40 L8,38" fill="#ffffff" class="cell_$procmux$16"/><path d="M4,2 L4,0 L22,9 L22,31 L4,40 L4,38" fill="#ffffff" class="cell_$procmux$16"/><path d="M0,0 L20,10 L20,30 L0,40 Z" fill="#ffffff" class="cell_$procmux$16"/><text x="5" y="32" class="nodelabel cell_$procmux$16" s:attribute="">1</text><text x="5" y="13" class="nodelabel cell_$procmux$16" s:attribute="">0</text><g s:x="-1" s:y="10" s:pid="A"/><g s:x="-1" s:y="30" s:pid="B"/><g s:x="12" s:y="38" s:pid="S"/><g s:x="24.5" s:y="20" s:pid="Y"/></g><g s:type="mux-bus" transform="translate(896.5,142)" s:width="24" s:height="40" id="cell_$procmux$19"><s:alias val="$pmux-bus"/><s:alias val="$mux-bus"/><s:alias val="$_MUX_-bus"/><path d="M8,2 L8,0 L24,8 L24,32 L8,40 L8,38" fill="#ffffff" class="cell_$procmux$19"/><path d="M4,2 L4,0 L22,9 L22,31 L4,40 L4,38" fill="#ffffff" class="cell_$procmux$19"/><path d="M0,0 L20,10 L20,30 L0,40 Z" fill="#ffffff" class="cell_$procmux$19"/><text x="5" y="32" class="nodelabel cell_$procmux$19" s:attribute="">1</text><text x="5" y="13" class="nodelabel cell_$procmux$19" s:attribute="">0</text><g s:x="-1" s:y="10" s:pid="A"/><g s:x="-1" s:y="30" s:pid="B"/><g s:x="12" s:y="38" s:pid="S"/><g s:x="24.5" s:y="20" s:pid="Y"/></g><g s:type="mux-bus" transform="translate(797,370)" s:width="24" s:height="40" id="cell_$ternary$jtag_shiftReg.sv:31$4"><s:alias val="$pmux-bus"/><s:alias val="$mux-bus"/><s:alias val="$_MUX_-bus"/><path d="M8,2 L8,0 L24,8 L24,32 L8,40 L8,38" fill="#ffffff" class="cell_$ternary$jtag_shiftReg.sv:31$4"/><path d="M4,2 L4,0 L22,9 L22,31 L4,40 L4,38" fill="#ffffff" class="cell_$ternary$jtag_shiftReg.sv:31$4"/><path d="M0,0 L20,10 L20,30 L0,40 Z" fill="#ffffff" class="cell_$ternary$jtag_shiftReg.sv:31$4"/><text x="5" y="32" class="nodelabel cell_$ternary$jtag_shiftReg.sv:31$4" s:attribute="">1</text><text x="5" y="13" class="nodelabel cell_$ternary$jtag_shiftReg.sv:31$4" s:attribute="">0</text><g s:x="-1" s:y="10" s:pid="A"/><g s:x="-1" s:y="30" s:pid="B"/><g s:x="12" s:y="38" s:pid="S"/><g s:x="24.5" s:y="20" s:pid="Y"/></g><g s:type="inputExt" transform="translate(12,107)" s:width="30" s:height="20" id="cell_i_tclk"><text x="15" y="-4" class="nodelabel cell_i_tclk" s:attribute="ref">i_tclk</text><s:alias val="$_inputExt_"/><path d="M0,0 L0,20 L15,20 L30,10 L15,0 Z" fill="#8bcaff" class="cell_i_tclk"/><g s:x="30" s:y="10" s:pid="Y"/></g><g s:type="inputExt" transform="translate(12,22)" s:width="30" s:height="20" id="cell_i_trst_n"><text x="15" y="-4" class="nodelabel cell_i_trst_n" s:attribute="ref">i_trst_n</text><s:alias val="$_inputExt_"/><path d="M0,0 L0,20 L15,20 L30,10 L15,0 Z" fill="#8bcaff" class="cell_i_trst_n"/><g s:x="30" s:y="10" s:pid="Y"/></g><g s:type="inputExt" transform="translate(327,183)" s:width="30" s:height="20" id="cell_i_tdi"><text x="15" y="-4" class="nodelabel cell_i_tdi" s:attribute="ref">i_tdi</text><s:alias val="$_inputExt_"/><path d="M0,0 L0,20 L15,20 L30,10 L15,0 Z" fill="#8bcaff" class="cell_i_tdi"/><g s:x="30" s:y="10" s:pid="Y"/></g><g s:type="outputExt" transform="translate(896.5,587.5)" s:width="30" s:height="20" id="cell_o_tdo"><text x="15" y="-4" class="nodelabel cell_o_tdo" s:attribute="ref">o_tdo</text><s:alias val="$_outputExt_"/><path d="M30,0 L30,20 L15,20 L0,10 L15,0 Z" fill="#169300" class="cell_o_tdo"/><g s:x="0" s:y="10" s:pid="A"/></g><g s:type="inputExt" transform="translate(588,500)" s:width="30" s:height="20" id="cell_i_stateIsCaptureDr"><text x="15" y="-4" class="nodelabel cell_i_stateIsCaptureDr" s:attribute="ref">i_stateIsCaptureDr</text><s:alias val="$_inputExt_"/><path d="M0,0 L0,20 L15,20 L30,10 L15,0 Z" fill="#8bcaff" class="cell_i_stateIsCaptureDr"/><g s:x="30" s:y="10" s:pid="Y"/></g><g s:type="inputExt" transform="translate(588,565)" s:width="30" s:height="20" id="cell_i_stateIsCaptureIr"><text x="15" y="-4" class="nodelabel cell_i_stateIsCaptureIr" s:attribute="ref">i_stateIsCaptureIr</text><s:alias val="$_inputExt_"/><path d="M0,0 L0,20 L15,20 L30,10 L15,0 Z" fill="#8bcaff" class="cell_i_stateIsCaptureIr"/><g s:x="30" s:y="10" s:pid="Y"/></g><g s:type="inputExt" transform="translate(392,267.5)" s:width="30" s:height="20" id="cell_i_stateIsShiftDr"><text x="15" y="-4" class="nodelabel cell_i_stateIsShiftDr" s:attribute="ref">i_stateIsShiftDr</text><s:alias val="$_inputExt_"/><path d="M0,0 L0,20 L15,20 L30,10 L15,0 Z" fill="#8bcaff" class="cell_i_stateIsShiftDr"/><g s:x="30" s:y="10" s:pid="Y"/></g><g s:type="inputExt" transform="translate(392,332.5)" s:width="30" s:height="20" id="cell_i_stateIsShiftIr"><text x="15" y="-4" class="nodelabel cell_i_stateIsShiftIr" s:attribute="ref">i_stateIsShiftIr</text><s:alias val="$_inputExt_"/><path d="M0,0 L0,20 L15,20 L30,10 L15,0 Z" fill="#8bcaff" class="cell_i_stateIsShiftIr"/><g s:x="30" s:y="10" s:pid="Y"/></g><g s:type="inputExt" transform="translate(588,435)" s:width="30" s:height="20" id="cell_i_dataReg"><text x="15" y="-4" class="nodelabel cell_i_dataReg" s:attribute="ref">i_dataReg</text><s:alias val="$_inputExt_"/><path d="M0,0 L0,20 L15,20 L30,10 L15,0 Z" fill="#8bcaff" class="cell_i_dataReg"/><g s:x="30" s:y="10" s:pid="Y"/></g><g s:type="inputExt" transform="translate(588,370)" s:width="30" s:height="20" id="cell_i_instrReg"><text x="15" y="-4" class="nodelabel cell_i_instrReg" s:attribute="ref">i_instrReg</text><s:alias val="$_inputExt_"/><path d="M0,0 L0,20 L15,20 L30,10 L15,0 Z" fill="#8bcaff" class="cell_i_instrReg"/><g s:x="30" s:y="10" s:pid="Y"/></g><g s:type="outputExt" transform="translate(895.5,87)" s:width="30" s:height="20" id="cell_o_shiftReg"><text x="15" y="-4" class="nodelabel cell_o_shiftReg" s:attribute="ref">o_shiftReg</text><s:alias val="$_outputExt_"/><path d="M30,0 L30,20 L15,20 L0,10 L15,0 Z" fill="#169300" class="cell_o_shiftReg"/><g s:x="0" s:y="10" s:pid="A"/></g><g s:type="constant" transform="translate(588,305)" s:width="30" s:height="20" id="cell_xxxxxxxxxxxxxxxxxxxxxxxxxxxxxxxx"><text x="15" y="-4" class="nodelabel cell_xxxxxxxxxxxxxxxxxxxxxxxxxxxxxxxx" s:attribute="ref">0xNaN</text><s:alias val="$_constant_"/><rect width="30" height="20" fill="#745bff" class="cell_xxxxxxxxxxxxxxxxxxxxxxxxxxxxxxxx"/><g s:x="31" s:y="10" s:pid="Y"/></g><g s:type="join" transform="translate(425,182.5)" s:width="5" s:height="40" id="cell_$join$,4,74,75,76,77,78,79,80,81,82,83,84,85,86,87,88,89,90,91,92,93,94,95,96,97,98,99,100,101,102,103,104,"><rect width="5" height="40" class="splitjoinBody" s:generic="body"/><s:alias val="$_join_"/><g s:x="5" s:y="20" s:pid="out"/><g transform="translate(-1,10)" s:x="-1" s:y="10" s:pid="in0"><text x="-3" y="-4" class="inputPortLabel">0</text></g><g transform="translate(-1,30)" s:x="-1" s:y="10" s:pid="in0"><text x="-3" y="-4" class="inputPortLabel">1:31</text></g></g><g s:type="split" transform="translate(261,231.5)" s:width="5" s:height="40" id="cell_$split$,74,75,76,77,78,79,80,81,82,83,84,85,86,87,88,89,90,91,92,93,94,95,96,97,98,99,100,101,102,103,104,5,"><rect width="5" height="40" class="splitjoinBody" s:generic="body"/><s:alias val="$_split_"/><g s:x="-1" s:y="20" s:pid="in"/><g transform="translate(5,10)" s:x="5" s:y="10" s:pid="out0"><text x="5" y="-4">0:30</text></g><g transform="translate(5,30)" s:x="5" s:y="10" s:pid="out0"><text x="5" y="-4">31</text></g></g><line x1="42" x2="895.5" y1="32" y2="32" class="net_3 width_1" style="stroke-width: 1"/><line x1="42" x2="70" y1="32" y2="32" class="net_3 width_1" style="stroke-width: 1"/><line x1="70" x2="70" y1="32" y2="97" class="net_3 width_1" style="stroke-width: 1"/><circle cx="70" cy="32" r="2" style="fill:#000" class="net_3 width_1"/><line x1="70" x2="120" y1="97" y2="97" class="net_3 width_1" style="stroke-width: 1"/><line x1="618" x2="706" y1="510" y2="510" class="net_6 width_1" style="stroke-width: 1"/><line x1="706" x2="706" y1="510" y2="560" class="net_6 width_1" style="stroke-width: 1"/><circle cx="706" cy="510" r="2" style="fill:#000" class="net_6 width_1"/><line x1="706" x2="733" y1="560" y2="560" class="net_6 width_1" style="stroke-width: 1"/><line x1="618" x2="809" y1="510" y2="510" class="net_6 width_1" style="stroke-width: 1"/><line x1="809" x2="809" y1="510" y2="408" class="net_6 width_1" style="stroke-width: 1"/><line x1="618" x2="733" y1="575" y2="575" class="net_7 width_1" style="stroke-width: 1"/><line x1="422" x2="525" y1="277.5" y2="277.5" class="net_8 width_1" style="stroke-width: 1"/><line x1="422" x2="498" y1="342.5" y2="342.5" class="net_9 width_1" style="stroke-width: 1"/><line x1="498" x2="498" y1="342.5" y2="292.5" class="net_9 width_1" style="stroke-width: 1"/><line x1="498" x2="525" y1="292.5" y2="292.5" class="net_9 width_1" style="stroke-width: 1"/><line x1="42" x2="119" y1="117" y2="117" class="net_2 width_1" style="stroke-width: 1"/><line x1="921" x2="965.5" y1="162" y2="162" class="net_108,109,110,111,112,113,114,115,116,117,118,119,120,121,122,123,124,125,126,127,128,129,130,131,132,133,134,135,136,137,138,139 width_32" style="stroke-width: 2"/><line x1="965.5" x2="965.5" y1="162" y2="617.5" class="net_108,109,110,111,112,113,114,115,116,117,118,119,120,121,122,123,124,125,126,127,128,129,130,131,132,133,134,135,136,137,138,139 width_32" style="stroke-width: 2"/><line x1="965.5" x2="70" y1="617.5" y2="617.5" class="net_108,109,110,111,112,113,114,115,116,117,118,119,120,121,122,123,124,125,126,127,128,129,130,131,132,133,134,135,136,137,138,139 width_32" style="stroke-width: 2"/><line x1="70" x2="70" y1="617.5" y2="137" class="net_108,109,110,111,112,113,114,115,116,117,118,119,120,121,122,123,124,125,126,127,128,129,130,131,132,133,134,135,136,137,138,139 width_32" style="stroke-width: 2"/><line x1="70" x2="119" y1="137" y2="137" class="net_108,109,110,111,112,113,114,115,116,117,118,119,120,121,122,123,124,125,126,127,128,129,130,131,132,133,134,135,136,137,138,139 width_32" style="stroke-width: 2"/><line x1="151" x2="302" y1="97" y2="97" class="net_74,75,76,77,78,79,80,81,82,83,84,85,86,87,88,89,90,91,92,93,94,95,96,97,98,99,100,101,102,103,104,5 width_32" style="stroke-width: 2"/><line x1="302" x2="302" y1="97" y2="132" class="net_74,75,76,77,78,79,80,81,82,83,84,85,86,87,88,89,90,91,92,93,94,95,96,97,98,99,100,101,102,103,104,5 width_32" style="stroke-width: 2"/><circle cx="302" cy="97" r="3" style="fill:#000" class="net_74,75,76,77,78,79,80,81,82,83,84,85,86,87,88,89,90,91,92,93,94,95,96,97,98,99,100,101,102,103,104,5 width_32"/><line x1="302" x2="615.3333333333334" y1="132" y2="132" class="net_74,75,76,77,78,79,80,81,82,83,84,85,86,87,88,89,90,91,92,93,94,95,96,97,98,99,100,101,102,103,104,5 width_32" style="stroke-width: 2"/><line x1="151" x2="895.5" y1="97" y2="97" class="net_74,75,76,77,78,79,80,81,82,83,84,85,86,87,88,89,90,91,92,93,94,95,96,97,98,99,100,101,102,103,104,5 width_32" style="stroke-width: 2"/><line x1="151" x2="196" y1="97" y2="97" class="net_74,75,76,77,78,79,80,81,82,83,84,85,86,87,88,89,90,91,92,93,94,95,96,97,98,99,100,101,102,103,104,5 width_32" style="stroke-width: 2"/><line x1="196" x2="196" y1="97" y2="252" class="net_74,75,76,77,78,79,80,81,82,83,84,85,86,87,88,89,90,91,92,93,94,95,96,97,98,99,100,101,102,103,104,5 width_32" style="stroke-width: 2"/><circle cx="196" cy="97" r="3" style="fill:#000" class="net_74,75,76,77,78,79,80,81,82,83,84,85,86,87,88,89,90,91,92,93,94,95,96,97,98,99,100,101,102,103,104,5 width_32"/><line x1="196" x2="260" y1="252" y2="252" class="net_74,75,76,77,78,79,80,81,82,83,84,85,86,87,88,89,90,91,92,93,94,95,96,97,98,99,100,101,102,103,104,5 width_32" style="stroke-width: 2"/><line x1="431" x2="563" y1="203" y2="203" class="net_4,74,75,76,77,78,79,80,81,82,83,84,85,86,87,88,89,90,91,92,93,94,95,96,97,98,99,100,101,102,103,104 width_32" style="stroke-width: 2"/><line x1="563" x2="563" y1="203" y2="152" class="net_4,74,75,76,77,78,79,80,81,82,83,84,85,86,87,88,89,90,91,92,93,94,95,96,97,98,99,100,101,102,103,104 width_32" style="stroke-width: 2"/><line x1="563" x2="615.3333333333334" y1="152" y2="152" class="net_4,74,75,76,77,78,79,80,81,82,83,84,85,86,87,88,89,90,91,92,93,94,95,96,97,98,99,100,101,102,103,104 width_32" style="stroke-width: 2"/><line x1="553" x2="628.3333333333334" y1="285" y2="285" class="net_107 width_1" style="stroke-width: 1"/><line x1="628.3333333333334" x2="628.3333333333334" y1="285" y2="160" class="net_107 width_1" style="stroke-width: 1"/><line x1="640.8333333333334" x2="796" y1="142" y2="142" class="net_140,141,142,143,144,145,146,147,148,149,150,151,152,153,154,155,156,157,158,159,160,161,162,163,164,165,166,167,168,169,170,171 width_32" style="stroke-width: 2"/><line x1="619" x2="771" y1="315" y2="315" class="net_236,237,238,239,240,241,242,243,244,245,246,247,248,249,250,251,252,253,254,255,256,257,258,259,260,261,262,263,264,265,266,267 width_32" style="stroke-width: 2"/><line x1="771" x2="771" y1="315" y2="162" class="net_236,237,238,239,240,241,242,243,244,245,246,247,248,249,250,251,252,253,254,255,256,257,258,259,260,261,262,263,264,265,266,267 width_32" style="stroke-width: 2"/><line x1="771" x2="796" y1="162" y2="162" class="net_236,237,238,239,240,241,242,243,244,245,246,247,248,249,250,251,252,253,254,255,256,257,258,259,260,261,262,263,264,265,266,267 width_32" style="stroke-width: 2"/><line x1="761" x2="771" y1="567.5" y2="567.5" class="net_106 width_1" style="stroke-width: 1"/><line x1="771" x2="771" y1="567.5" y2="360" class="net_106 width_1" style="stroke-width: 1"/><line x1="771" x2="809" y1="360" y2="360" class="net_106 width_1" style="stroke-width: 1"/><circle cx="771" cy="567.5" r="2" style="fill:#000" class="net_106 width_1"/><line x1="809" x2="809" y1="360" y2="170" class="net_106 width_1" style="stroke-width: 1"/><line x1="761" x2="908.5" y1="567.5" y2="567.5" class="net_106 width_1" style="stroke-width: 1"/><line x1="908.5" x2="908.5" y1="567.5" y2="180" class="net_106 width_1" style="stroke-width: 1"/><line x1="821.5" x2="895.5" y1="152" y2="152" class="net_172,173,174,175,176,177,178,179,180,181,182,183,184,185,186,187,188,189,190,191,192,193,194,195,196,197,198,199,200,201,202,203 width_32" style="stroke-width: 2"/><line x1="821.5" x2="870.5" y1="390" y2="390" class="net_204,205,206,207,208,209,210,211,212,213,214,215,216,217,218,219,220,221,222,223,224,225,226,227,228,229,230,231,232,233,234,235 width_32" style="stroke-width: 2"/><line x1="870.5" x2="870.5" y1="390" y2="172" class="net_204,205,206,207,208,209,210,211,212,213,214,215,216,217,218,219,220,221,222,223,224,225,226,227,228,229,230,231,232,233,234,235 width_32" style="stroke-width: 2"/><line x1="870.5" x2="895.5" y1="172" y2="172" class="net_204,205,206,207,208,209,210,211,212,213,214,215,216,217,218,219,220,221,222,223,224,225,226,227,228,229,230,231,232,233,234,235 width_32" style="stroke-width: 2"/><line x1="618" x2="796" y1="380" y2="380" class="net_42,43,44,45,46,47,48,49,50,51,52,53,54,55,56,57,58,59,60,61,62,63,64,65,66,67,68,69,70,71,72,73 width_32" style="stroke-width: 2"/><line x1="618" x2="781" y1="445" y2="445" class="net_10,11,12,13,14,15,16,17,18,19,20,21,22,23,24,25,26,27,28,29,30,31,32,33,34,35,36,37,38,39,40,41 width_32" style="stroke-width: 2"/><line x1="781" x2="781" y1="445" y2="400" class="net_10,11,12,13,14,15,16,17,18,19,20,21,22,23,24,25,26,27,28,29,30,31,32,33,34,35,36,37,38,39,40,41 width_32" style="stroke-width: 2"/><line x1="781" x2="796" y1="400" y2="400" class="net_10,11,12,13,14,15,16,17,18,19,20,21,22,23,24,25,26,27,28,29,30,31,32,33,34,35,36,37,38,39,40,41 width_32" style="stroke-width: 2"/><line x1="267" x2="302" y1="262" y2="262" class="net_5 width_1" style="stroke-width: 1"/><line x1="302" x2="302" y1="262" y2="597.5" class="net_5 width_1" style="stroke-width: 1"/><line x1="302" x2="896.5" y1="597.5" y2="597.5" class="net_5 width_1" style="stroke-width: 1"/><line x1="357" x2="424" y1="193" y2="193" class="net_4 width_1" style="stroke-width: 1"/><line x1="267" x2="367" y1="242" y2="242" class="net_74,75,76,77,78,79,80,81,82,83,84,85,86,87,88,89,90,91,92,93,94,95,96,97,98,99,100,101,102,103,104 width_31" style="stroke-width: 2"/><line x1="367" x2="367" y1="242" y2="213" class="net_74,75,76,77,78,79,80,81,82,83,84,85,86,87,88,89,90,91,92,93,94,95,96,97,98,99,100,101,102,103,104 width_31" style="stroke-width: 2"/><line x1="367" x2="424" y1="213" y2="213" class="net_74,75,76,77,78,79,80,81,82,83,84,85,86,87,88,89,90,91,92,93,94,95,96,97,98,99,100,101,102,103,104 width_31" style="stroke-width: 2"/><rect x="537" y="612.5" width="22" height="9" class="net_108,109,110,111,112,113,114,115,116,117,118,119,120,121,122,123,124,125,126,127,128,129,130,131,132,133,134,135,136,137,138,139 width_32 busLabel_32" style="fill: white; stroke: none"/><text x="536" y="620.5" class="net_108,109,110,111,112,113,114,115,116,117,118,119,120,121,122,123,124,125,126,127,128,129,130,131,132,133,134,135,136,137,138,139 width_32 busLabel_32">/32/</text><rect x="222" y="247" width="22" height="9" class="net_74,75,76,77,78,79,80,81,82,83,84,85,86,87,88,89,90,91,92,93,94,95,96,97,98,99,100,101,102,103,104,5 width_32 busLabel_32" style="fill: white; stroke: none"/><text x="221" y="255" class="net_74,75,76,77,78,79,80,81,82,83,84,85,86,87,88,89,90,91,92,93,94,95,96,97,98,99,100,101,102,103,104,5 width_32 busLabel_32">/32/</text><rect x="222" y="247" width="22" height="9" class="net_74,75,76,77,78,79,80,81,82,83,84,85,86,87,88,89,90,91,92,93,94,95,96,97,98,99,100,101,102,103,104,5 width_32 busLabel_32" style="fill: white; stroke: none"/><text x="221" y="255" class="net_74,75,76,77,78,79,80,81,82,83,84,85,86,87,88,89,90,91,92,93,94,95,96,97,98,99,100,101,102,103,104,5 width_32 busLabel_32">/32/</text><rect x="222" y="247" width="22" height="9" class="net_74,75,76,77,78,79,80,81,82,83,84,85,86,87,88,89,90,91,92,93,94,95,96,97,98,99,100,101,102,103,104,5 width_32 busLabel_32" style="fill: white; stroke: none"/><text x="221" y="255" class="net_74,75,76,77,78,79,80,81,82,83,84,85,86,87,88,89,90,91,92,93,94,95,96,97,98,99,100,101,102,103,104,5 width_32 busLabel_32">/32/</text><rect x="537" y="198" width="22" height="9" class="net_4,74,75,76,77,78,79,80,81,82,83,84,85,86,87,88,89,90,91,92,93,94,95,96,97,98,99,100,101,102,103,104 width_32 busLabel_32" style="fill: white; stroke: none"/><text x="536" y="206" class="net_4,74,75,76,77,78,79,80,81,82,83,84,85,86,87,88,89,90,91,92,93,94,95,96,97,98,99,100,101,102,103,104 width_32 busLabel_32">/32/</text><rect x="745" y="137" width="22" height="9" class="net_140,141,142,143,144,145,146,147,148,149,150,151,152,153,154,155,156,157,158,159,160,161,162,163,164,165,166,167,168,169,170,171 width_32 busLabel_32" style="fill: white; stroke: none"/><text x="744" y="145" class="net_140,141,142,143,144,145,146,147,148,149,150,151,152,153,154,155,156,157,158,159,160,161,162,163,164,165,166,167,168,169,170,171 width_32 busLabel_32">/32/</text><rect x="745" y="310" width="22" height="9" class="net_236,237,238,239,240,241,242,243,244,245,246,247,248,249,250,251,252,253,254,255,256,257,258,259,260,261,262,263,264,265,266,267 width_32 busLabel_32" style="fill: white; stroke: none"/><text x="744" y="318" class="net_236,237,238,239,240,241,242,243,244,245,246,247,248,249,250,251,252,253,254,255,256,257,258,259,260,261,262,263,264,265,266,267 width_32 busLabel_32">/32/</text><rect x="857.5" y="147" width="22" height="9" class="net_172,173,174,175,176,177,178,179,180,181,182,183,184,185,186,187,188,189,190,191,192,193,194,195,196,197,198,199,200,201,202,203 width_32 busLabel_32" style="fill: white; stroke: none"/><text x="856.5" y="155" class="net_172,173,174,175,176,177,178,179,180,181,182,183,184,185,186,187,188,189,190,191,192,193,194,195,196,197,198,199,200,201,202,203 width_32 busLabel_32">/32/</text><rect x="857.5" y="385" width="22" height="9" class="net_204,205,206,207,208,209,210,211,212,213,214,215,216,217,218,219,220,221,222,223,224,225,226,227,228,229,230,231,232,233,234,235 width_32 busLabel_32" style="fill: white; stroke: none"/><text x="856.5" y="393" class="net_204,205,206,207,208,209,210,211,212,213,214,215,216,217,218,219,220,221,222,223,224,225,226,227,228,229,230,231,232,233,234,235 width_32 busLabel_32">/32/</text><rect x="745" y="375" width="22" height="9" class="net_42,43,44,45,46,47,48,49,50,51,52,53,54,55,56,57,58,59,60,61,62,63,64,65,66,67,68,69,70,71,72,73 width_32 busLabel_32" style="fill: white; stroke: none"/><text x="744" y="383" class="net_42,43,44,45,46,47,48,49,50,51,52,53,54,55,56,57,58,59,60,61,62,63,64,65,66,67,68,69,70,71,72,73 width_32 busLabel_32">/32/</text><rect x="745" y="440" width="22" height="9" class="net_10,11,12,13,14,15,16,17,18,19,20,21,22,23,24,25,26,27,28,29,30,31,32,33,34,35,36,37,38,39,40,41 width_32 busLabel_32" style="fill: white; stroke: none"/><text x="744" y="448" class="net_10,11,12,13,14,15,16,17,18,19,20,21,22,23,24,25,26,27,28,29,30,31,32,33,34,35,36,37,38,39,40,41 width_32 busLabel_32">/32/</text><rect x="341" y="237" width="22" height="9" class="net_74,75,76,77,78,79,80,81,82,83,84,85,86,87,88,89,90,91,92,93,94,95,96,97,98,99,100,101,102,103,104 width_31 busLabel_31" style="fill: white; stroke: none"/><text x="340" y="245" class="net_74,75,76,77,78,79,80,81,82,83,84,85,86,87,88,89,90,91,92,93,94,95,96,97,98,99,100,101,102,103,104 width_31 busLabel_31">/31/</text></svg>