<?xml version="1.0" encoding="UTF-8" standalone="no"?>
<!DOCTYPE svg PUBLIC "-//W3C//DTD SVG 1.1//EN"
 "http://www.w3.org/Graphics/SVG/1.1/DTD/svg11.dtd">
<!-- Generated by graphviz version 2.40.1 (20161225.0304)
 -->
<!-- Title: state transitions Pages: 1 -->
<svg width="703pt" height="844pt"
 viewBox="0.00 0.00 703.00 844.00" xmlns="http://www.w3.org/2000/svg" xmlns:xlink="http://www.w3.org/1999/xlink">
<g id="graph0" class="graph" transform="scale(1 1) rotate(0) translate(4 840)">
<title>state transitions</title>
<polygon fill="#ffffff" stroke="transparent" points="-4,4 -4,-840 699,-840 699,4 -4,4"/>
<g id="clust1" class="cluster state regular">
<title>cluster_state_d</title>
<path fill="none" stroke="#000000" stroke-width="2" d="M20,-8C20,-8 675,-8 675,-8 681,-8 687,-14 687,-20 687,-20 687,-816 687,-816 687,-822 681,-828 675,-828 675,-828 20,-828 20,-828 14,-828 8,-822 8,-816 8,-816 8,-20 8,-20 8,-14 14,-8 20,-8"/>
<text text-anchor="start" x="328.3236" y="-809.2" font-family="Helvetica,sans-Serif" font-size="12.00" fill="#000000">state_d</text>
</g>
<!-- state_d -->
<!-- STATE_RESET -->
<g id="node2" class="node state regular">
<title>STATE_RESET</title>
<polygon fill="#ffffff" fill-opacity="0.003922" stroke="transparent" stroke-width="2" points="468.5,-790 361.5,-790 361.5,-754 468.5,-754 468.5,-790"/>
<text text-anchor="start" x="372.8286" y="-768.2" font-family="Helvetica,sans-Serif" font-size="12.00" fill="#000000">STATE_RESET</text>
<path fill="none" stroke="#000000" stroke-width="2" d="M373.8333,-755C373.8333,-755 456.1667,-755 456.1667,-755 461.8333,-755 467.5,-760.6667 467.5,-766.3333 467.5,-766.3333 467.5,-777.6667 467.5,-777.6667 467.5,-783.3333 461.8333,-789 456.1667,-789 456.1667,-789 373.8333,-789 373.8333,-789 368.1667,-789 362.5,-783.3333 362.5,-777.6667 362.5,-777.6667 362.5,-766.3333 362.5,-766.3333 362.5,-760.6667 368.1667,-755 373.8333,-755"/>
</g>
<!-- STATE_RESET&#45;&gt;STATE_RESET -->
<g id="edge1" class="edge transition">
<title>STATE_RESET&#45;&gt;STATE_RESET</title>
<path fill="none" stroke="#000000" d="M468.6104,-776.7786C481.2069,-776.3858 490.5,-774.793 490.5,-772 490.5,-770.0362 485.9056,-768.6657 478.799,-767.8885"/>
<polygon fill="#000000" stroke="#000000" points="478.8177,-764.3823 468.6104,-767.2214 478.3603,-771.3674 478.8177,-764.3823"/>
<text text-anchor="start" x="490.5" y="-769" font-family="Helvetica,sans-Serif" font-size="10.00" fill="#000000">i_tms &#160;&#160;</text>
</g>
<!-- STATE_IDLE -->
<g id="node3" class="node state regular">
<title>STATE_IDLE</title>
<polygon fill="#ffffff" fill-opacity="0.003922" stroke="transparent" stroke-width="2" points="377,-708 283,-708 283,-672 377,-672 377,-708"/>
<text text-anchor="start" x="293.994" y="-686.2" font-family="Helvetica,sans-Serif" font-size="12.00" fill="#000000">STATE_IDLE</text>
<path fill="none" stroke="#000000" stroke-width="2" d="M295.3333,-673C295.3333,-673 364.6667,-673 364.6667,-673 370.3333,-673 376,-678.6667 376,-684.3333 376,-684.3333 376,-695.6667 376,-695.6667 376,-701.3333 370.3333,-707 364.6667,-707 364.6667,-707 295.3333,-707 295.3333,-707 289.6667,-707 284,-701.3333 284,-695.6667 284,-695.6667 284,-684.3333 284,-684.3333 284,-678.6667 289.6667,-673 295.3333,-673"/>
</g>
<!-- STATE_RESET&#45;&gt;STATE_IDLE -->
<g id="edge2" class="edge transition">
<title>STATE_RESET&#45;&gt;STATE_IDLE</title>
<path fill="none" stroke="#000000" d="M396.1357,-753.8015C384.3608,-742.4422 369.0366,-727.6588 356.1044,-715.1831"/>
<polygon fill="#000000" stroke="#000000" points="358.4385,-712.5716 348.8115,-708.1476 353.5784,-717.6095 358.4385,-712.5716"/>
<text text-anchor="start" x="378" y="-728" font-family="Helvetica,sans-Serif" font-size="10.00" fill="#000000">not (i_tms) &#160;&#160;</text>
</g>
<!-- STATE_IDLE&#45;&gt;STATE_IDLE -->
<g id="edge4" class="edge transition">
<title>STATE_IDLE&#45;&gt;STATE_IDLE</title>
<path fill="none" stroke="#000000" d="M377.0851,-694.8322C389.5552,-694.556 399,-692.9453 399,-690 399,-687.9291 394.3306,-686.518 387.2234,-685.7666"/>
<polygon fill="#000000" stroke="#000000" points="387.2741,-682.2636 377.0851,-685.1678 386.8613,-689.2514 387.2741,-682.2636"/>
<text text-anchor="start" x="399" y="-687" font-family="Helvetica,sans-Serif" font-size="10.00" fill="#000000">not (i_tms) &#160;&#160;</text>
</g>
<!-- STATE_SELECT_DR -->
<g id="node4" class="node state regular">
<title>STATE_SELECT_DR</title>
<polygon fill="#ffffff" fill-opacity="0.003922" stroke="transparent" stroke-width="2" points="376,-626 238,-626 238,-590 376,-590 376,-626"/>
<text text-anchor="start" x="248.995" y="-604.2" font-family="Helvetica,sans-Serif" font-size="12.00" fill="#000000">STATE_SELECT_DR</text>
<path fill="none" stroke="#000000" stroke-width="2" d="M250.3333,-591C250.3333,-591 363.6667,-591 363.6667,-591 369.3333,-591 375,-596.6667 375,-602.3333 375,-602.3333 375,-613.6667 375,-613.6667 375,-619.3333 369.3333,-625 363.6667,-625 363.6667,-625 250.3333,-625 250.3333,-625 244.6667,-625 239,-619.3333 239,-613.6667 239,-613.6667 239,-602.3333 239,-602.3333 239,-596.6667 244.6667,-591 250.3333,-591"/>
</g>
<!-- STATE_IDLE&#45;&gt;STATE_SELECT_DR -->
<g id="edge3" class="edge transition">
<title>STATE_IDLE&#45;&gt;STATE_SELECT_DR</title>
<path fill="none" stroke="#000000" d="M324.8956,-671.8015C321.9476,-661.2915 318.1775,-647.8503 314.8586,-636.0177"/>
<polygon fill="#000000" stroke="#000000" points="318.1609,-634.8308 312.0902,-626.1476 311.421,-636.7213 318.1609,-634.8308"/>
<text text-anchor="start" x="320" y="-646" font-family="Helvetica,sans-Serif" font-size="10.00" fill="#000000">i_tms &#160;&#160;</text>
</g>
<!-- STATE_CAPTURE_DR -->
<g id="node5" class="node state regular">
<title>STATE_CAPTURE_DR</title>
<polygon fill="#ffffff" fill-opacity="0.003922" stroke="transparent" stroke-width="2" points="302,-544 154,-544 154,-508 302,-508 302,-544"/>
<text text-anchor="start" x="164.6676" y="-522.2" font-family="Helvetica,sans-Serif" font-size="12.00" fill="#000000">STATE_CAPTURE_DR</text>
<path fill="none" stroke="#000000" stroke-width="2" d="M166.3333,-509C166.3333,-509 289.6667,-509 289.6667,-509 295.3333,-509 301,-514.6667 301,-520.3333 301,-520.3333 301,-531.6667 301,-531.6667 301,-537.3333 295.3333,-543 289.6667,-543 289.6667,-543 166.3333,-543 166.3333,-543 160.6667,-543 155,-537.3333 155,-531.6667 155,-531.6667 155,-520.3333 155,-520.3333 155,-514.6667 160.6667,-509 166.3333,-509"/>
</g>
<!-- STATE_SELECT_DR&#45;&gt;STATE_CAPTURE_DR -->
<g id="edge6" class="edge transition">
<title>STATE_SELECT_DR&#45;&gt;STATE_CAPTURE_DR</title>
<path fill="none" stroke="#000000" d="M265.5609,-589.8028C258.1452,-585.1442 251.017,-579.5564 245.443,-573 240.7463,-567.4755 237.2592,-560.569 234.6918,-553.7651"/>
<polygon fill="#000000" stroke="#000000" points="237.9565,-552.4848 231.5546,-544.0429 231.2947,-554.6345 237.9565,-552.4848"/>
<text text-anchor="start" x="245" y="-564" font-family="Helvetica,sans-Serif" font-size="10.00" fill="#000000">not (i_tms) &#160;&#160;</text>
</g>
<!-- STATE_SELECT_IR -->
<g id="node11" class="node state regular">
<title>STATE_SELECT_IR</title>
<polygon fill="#ffffff" fill-opacity="0.003922" stroke="transparent" stroke-width="2" points="552,-544 420,-544 420,-508 552,-508 552,-544"/>
<text text-anchor="start" x="430.659" y="-522.2" font-family="Helvetica,sans-Serif" font-size="12.00" fill="#000000">STATE_SELECT_IR</text>
<path fill="none" stroke="#000000" stroke-width="2" d="M432.3333,-509C432.3333,-509 539.6667,-509 539.6667,-509 545.3333,-509 551,-514.6667 551,-520.3333 551,-520.3333 551,-531.6667 551,-531.6667 551,-537.3333 545.3333,-543 539.6667,-543 539.6667,-543 432.3333,-543 432.3333,-543 426.6667,-543 421,-537.3333 421,-531.6667 421,-531.6667 421,-520.3333 421,-520.3333 421,-514.6667 426.6667,-509 432.3333,-509"/>
</g>
<!-- STATE_SELECT_DR&#45;&gt;STATE_SELECT_IR -->
<g id="edge5" class="edge transition">
<title>STATE_SELECT_DR&#45;&gt;STATE_SELECT_IR</title>
<path fill="none" stroke="#000000" d="M346.7259,-589.8015C373.4691,-577.5505 408.906,-561.3168 437.3413,-548.2906"/>
<polygon fill="#000000" stroke="#000000" points="439.0597,-551.3532 446.6935,-544.0063 436.1443,-544.9892 439.0597,-551.3532"/>
<text text-anchor="start" x="408" y="-564" font-family="Helvetica,sans-Serif" font-size="10.00" fill="#000000">i_tms &#160;&#160;</text>
</g>
<!-- STATE_SHIFT_DR -->
<g id="node6" class="node state regular">
<title>STATE_SHIFT_DR</title>
<polygon fill="#ffffff" fill-opacity="0.003922" stroke="transparent" stroke-width="2" points="200.5,-462 75.5,-462 75.5,-426 200.5,-426 200.5,-462"/>
<text text-anchor="start" x="86.5004" y="-440.2" font-family="Helvetica,sans-Serif" font-size="12.00" fill="#000000">STATE_SHIFT_DR</text>
<path fill="none" stroke="#000000" stroke-width="2" d="M87.8333,-427C87.8333,-427 188.1667,-427 188.1667,-427 193.8333,-427 199.5,-432.6667 199.5,-438.3333 199.5,-438.3333 199.5,-449.6667 199.5,-449.6667 199.5,-455.3333 193.8333,-461 188.1667,-461 188.1667,-461 87.8333,-461 87.8333,-461 82.1667,-461 76.5,-455.3333 76.5,-449.6667 76.5,-449.6667 76.5,-438.3333 76.5,-438.3333 76.5,-432.6667 82.1667,-427 87.8333,-427"/>
</g>
<!-- STATE_CAPTURE_DR&#45;&gt;STATE_SHIFT_DR -->
<g id="edge8" class="edge transition">
<title>STATE_CAPTURE_DR&#45;&gt;STATE_SHIFT_DR</title>
<path fill="none" stroke="#000000" d="M208.0261,-507.8015C195.5585,-496.4422 179.3329,-481.6588 165.64,-469.1831"/>
<polygon fill="#000000" stroke="#000000" points="167.6673,-466.2953 157.9181,-462.1476 162.9528,-471.4697 167.6673,-466.2953"/>
<text text-anchor="start" x="188" y="-482" font-family="Helvetica,sans-Serif" font-size="10.00" fill="#000000">not (i_tms) &#160;&#160;</text>
</g>
<!-- STATE_EXIT1_DR -->
<g id="node7" class="node state regular">
<title>STATE_EXIT1_DR</title>
<polygon fill="#ffffff" fill-opacity="0.003922" stroke="transparent" stroke-width="2" points="288,-380 164,-380 164,-344 288,-344 288,-380"/>
<text text-anchor="start" x="174.6604" y="-358.2" font-family="Helvetica,sans-Serif" font-size="12.00" fill="#000000">STATE_EXIT1_DR</text>
<path fill="none" stroke="#000000" stroke-width="2" d="M176.3333,-345C176.3333,-345 275.6667,-345 275.6667,-345 281.3333,-345 287,-350.6667 287,-356.3333 287,-356.3333 287,-367.6667 287,-367.6667 287,-373.3333 281.3333,-379 275.6667,-379 275.6667,-379 176.3333,-379 176.3333,-379 170.6667,-379 165,-373.3333 165,-367.6667 165,-367.6667 165,-356.3333 165,-356.3333 165,-350.6667 170.6667,-345 176.3333,-345"/>
</g>
<!-- STATE_CAPTURE_DR&#45;&gt;STATE_EXIT1_DR -->
<g id="edge7" class="edge transition">
<title>STATE_CAPTURE_DR&#45;&gt;STATE_EXIT1_DR</title>
<path fill="none" stroke="#000000" d="M289.028,-507.8354C305.0787,-501.2306 318,-493.3274 318,-485 318,-485 318,-485 318,-403 318,-396.1403 309.3588,-389.6343 297.3731,-383.9094"/>
<polygon fill="#000000" stroke="#000000" points="298.6961,-380.6681 288.1302,-379.885 295.9016,-387.0862 298.6961,-380.6681"/>
<text text-anchor="start" x="318" y="-441" font-family="Helvetica,sans-Serif" font-size="10.00" fill="#000000">i_tms &#160;&#160;</text>
</g>
<!-- STATE_SHIFT_DR&#45;&gt;STATE_SHIFT_DR -->
<g id="edge10" class="edge transition">
<title>STATE_SHIFT_DR&#45;&gt;STATE_SHIFT_DR</title>
<path fill="none" stroke="#000000" d="M200.6458,-448.689C213.3807,-448.1782 222.5,-446.6152 222.5,-444 222.5,-442.1612 217.9916,-440.8425 210.8879,-440.0441"/>
<polygon fill="#000000" stroke="#000000" points="210.8702,-436.534 200.6458,-439.311 210.3704,-443.5161 210.8702,-436.534"/>
<text text-anchor="start" x="222.5" y="-441" font-family="Helvetica,sans-Serif" font-size="10.00" fill="#000000">not (i_tms) &#160;&#160;</text>
</g>
<!-- STATE_SHIFT_DR&#45;&gt;STATE_EXIT1_DR -->
<g id="edge9" class="edge transition">
<title>STATE_SHIFT_DR&#45;&gt;STATE_EXIT1_DR</title>
<path fill="none" stroke="#000000" d="M157.5301,-425.8015C169.7206,-414.4422 185.5857,-399.6588 198.9742,-387.1831"/>
<polygon fill="#000000" stroke="#000000" points="201.5945,-389.5255 206.5245,-380.1476 196.8224,-384.4042 201.5945,-389.5255"/>
<text text-anchor="start" x="187" y="-400" font-family="Helvetica,sans-Serif" font-size="10.00" fill="#000000">i_tms &#160;&#160;</text>
</g>
<!-- STATE_PAUSE_DR -->
<g id="node8" class="node state regular">
<title>STATE_PAUSE_DR</title>
<polygon fill="#ffffff" fill-opacity="0.003922" stroke="transparent" stroke-width="2" points="243,-298 111,-298 111,-262 243,-262 243,-298"/>
<text text-anchor="start" x="121.9944" y="-276.2" font-family="Helvetica,sans-Serif" font-size="12.00" fill="#000000">STATE_PAUSE_DR</text>
<path fill="none" stroke="#000000" stroke-width="2" d="M123.3333,-263C123.3333,-263 230.6667,-263 230.6667,-263 236.3333,-263 242,-268.6667 242,-274.3333 242,-274.3333 242,-285.6667 242,-285.6667 242,-291.3333 236.3333,-297 230.6667,-297 230.6667,-297 123.3333,-297 123.3333,-297 117.6667,-297 112,-291.3333 112,-285.6667 112,-285.6667 112,-274.3333 112,-274.3333 112,-268.6667 117.6667,-263 123.3333,-263"/>
</g>
<!-- STATE_EXIT1_DR&#45;&gt;STATE_PAUSE_DR -->
<g id="edge12" class="edge transition">
<title>STATE_EXIT1_DR&#45;&gt;STATE_PAUSE_DR</title>
<path fill="none" stroke="#000000" d="M217.4921,-343.8053C213.1535,-334.9458 207.6157,-324.2383 202,-315 200.2933,-312.1924 198.4348,-309.316 196.5271,-306.4773"/>
<polygon fill="#000000" stroke="#000000" points="199.3412,-304.3936 190.7587,-298.1813 193.5939,-308.3898 199.3412,-304.3936"/>
<text text-anchor="start" x="208" y="-318" font-family="Helvetica,sans-Serif" font-size="10.00" fill="#000000">not (i_tms) &#160;&#160;</text>
</g>
<!-- STATE_UPDATE_DR -->
<g id="node10" class="node state regular">
<title>STATE_UPDATE_DR</title>
<polygon fill="#ffffff" fill-opacity="0.003922" stroke="transparent" stroke-width="2" points="385,-134 245,-134 245,-98 385,-98 385,-134"/>
<text text-anchor="start" x="255.999" y="-112.2" font-family="Helvetica,sans-Serif" font-size="12.00" fill="#000000">STATE_UPDATE_DR</text>
<path fill="none" stroke="#000000" stroke-width="2" d="M257.3333,-99C257.3333,-99 372.6667,-99 372.6667,-99 378.3333,-99 384,-104.6667 384,-110.3333 384,-110.3333 384,-121.6667 384,-121.6667 384,-127.3333 378.3333,-133 372.6667,-133 372.6667,-133 257.3333,-133 257.3333,-133 251.6667,-133 246,-127.3333 246,-121.6667 246,-121.6667 246,-110.3333 246,-110.3333 246,-104.6667 251.6667,-99 257.3333,-99"/>
</g>
<!-- STATE_EXIT1_DR&#45;&gt;STATE_UPDATE_DR -->
<g id="edge11" class="edge transition">
<title>STATE_EXIT1_DR&#45;&gt;STATE_UPDATE_DR</title>
<path fill="none" stroke="#000000" d="M274.2224,-343.909C294.3159,-333.693 315.5923,-318.7338 327,-298 334.7128,-283.9817 330.7174,-277.5622 327,-262 322.659,-243.8274 308,-243.1839 308,-224.5 308,-224.5 308,-224.5 308,-157 308,-152.893 308.3455,-148.5872 308.883,-144.3737"/>
<polygon fill="#000000" stroke="#000000" points="312.3779,-144.6874 310.5272,-134.2555 305.4685,-143.5646 312.3779,-144.6874"/>
<text text-anchor="start" x="317" y="-236" font-family="Helvetica,sans-Serif" font-size="10.00" fill="#000000">i_tms &#160;&#160;</text>
</g>
<!-- STATE_PAUSE_DR&#45;&gt;STATE_PAUSE_DR -->
<g id="edge14" class="edge transition">
<title>STATE_PAUSE_DR&#45;&gt;STATE_PAUSE_DR</title>
<path fill="none" stroke="#000000" d="M243.0089,-284.6581C255.8682,-284.1171 265,-282.5645 265,-280 265,-278.1969 260.4854,-276.8939 253.3348,-276.0912"/>
<polygon fill="#000000" stroke="#000000" points="253.236,-272.5749 243.0089,-275.3419 252.7293,-279.5566 253.236,-272.5749"/>
<text text-anchor="start" x="265" y="-277" font-family="Helvetica,sans-Serif" font-size="10.00" fill="#000000">not (i_tms) &#160;&#160;</text>
</g>
<!-- STATE_EXIT2_DR -->
<g id="node9" class="node state regular">
<title>STATE_EXIT2_DR</title>
<polygon fill="#ffffff" fill-opacity="0.003922" stroke="transparent" stroke-width="2" points="239,-216 115,-216 115,-180 239,-180 239,-216"/>
<text text-anchor="start" x="125.6604" y="-194.2" font-family="Helvetica,sans-Serif" font-size="12.00" fill="#000000">STATE_EXIT2_DR</text>
<path fill="none" stroke="#000000" stroke-width="2" d="M127.3333,-181C127.3333,-181 226.6667,-181 226.6667,-181 232.3333,-181 238,-186.6667 238,-192.3333 238,-192.3333 238,-203.6667 238,-203.6667 238,-209.3333 232.3333,-215 226.6667,-215 226.6667,-215 127.3333,-215 127.3333,-215 121.6667,-215 116,-209.3333 116,-203.6667 116,-203.6667 116,-192.3333 116,-192.3333 116,-186.6667 121.6667,-181 127.3333,-181"/>
</g>
<!-- STATE_PAUSE_DR&#45;&gt;STATE_EXIT2_DR -->
<g id="edge13" class="edge transition">
<title>STATE_PAUSE_DR&#45;&gt;STATE_EXIT2_DR</title>
<path fill="none" stroke="#000000" d="M177,-261.8015C177,-251.3976 177,-238.1215 177,-226.3768"/>
<polygon fill="#000000" stroke="#000000" points="180.5001,-226.1476 177,-216.1476 173.5001,-226.1476 180.5001,-226.1476"/>
<text text-anchor="start" x="177" y="-236" font-family="Helvetica,sans-Serif" font-size="10.00" fill="#000000">i_tms &#160;&#160;</text>
</g>
<!-- STATE_EXIT2_DR&#45;&gt;STATE_SHIFT_DR -->
<g id="edge16" class="edge transition">
<title>STATE_EXIT2_DR&#45;&gt;STATE_SHIFT_DR</title>
<path fill="none" stroke="#000000" d="M143.5987,-216.2004C127.2114,-227.113 109.0812,-242.6435 100,-262 93.2043,-276.4851 93.5493,-283.358 100,-298 109.9561,-320.5987 141,-310.8053 141,-335.5 141,-403 141,-403 141,-403 141,-407.0592 140.8519,-411.3385 140.6216,-415.5397"/>
<polygon fill="#000000" stroke="#000000" points="137.1206,-415.433 139.9169,-425.6522 144.1037,-415.9197 137.1206,-415.433"/>
<text text-anchor="start" x="139" y="-318" font-family="Helvetica,sans-Serif" font-size="10.00" fill="#000000">not (i_tms) &#160;&#160;</text>
</g>
<!-- STATE_EXIT2_DR&#45;&gt;STATE_UPDATE_DR -->
<g id="edge15" class="edge transition">
<title>STATE_EXIT2_DR&#45;&gt;STATE_UPDATE_DR</title>
<path fill="none" stroke="#000000" d="M207.6267,-179.8015C227.7263,-167.8583 254.1959,-152.13 275.8242,-139.2784"/>
<polygon fill="#000000" stroke="#000000" points="277.65,-142.2648 284.4589,-134.1476 274.0742,-136.247 277.65,-142.2648"/>
<text text-anchor="start" x="255" y="-154" font-family="Helvetica,sans-Serif" font-size="10.00" fill="#000000">i_tms &#160;&#160;</text>
</g>
<!-- STATE_UPDATE_DR&#45;&gt;STATE_IDLE -->
<g id="edge18" class="edge transition">
<title>STATE_UPDATE_DR&#45;&gt;STATE_IDLE</title>
<path fill="none" stroke="#000000" d="M332.063,-134.4228C353.3544,-159.4053 387,-206.3441 387,-253.5 387,-388.5 387,-388.5 387,-388.5 387,-474.7371 407,-495.2629 407,-581.5 407,-649 407,-649 407,-649 407,-662.1549 398.1357,-671.1029 386.4223,-677.1845"/>
<polygon fill="#000000" stroke="#000000" points="384.7707,-674.0866 377.0093,-681.2986 387.5741,-680.5008 384.7707,-674.0866"/>
<text text-anchor="start" x="387" y="-400" font-family="Helvetica,sans-Serif" font-size="10.00" fill="#000000">not (i_tms) &#160;&#160;</text>
</g>
<!-- STATE_UPDATE_DR&#45;&gt;STATE_SELECT_DR -->
<g id="edge17" class="edge transition">
<title>STATE_UPDATE_DR&#45;&gt;STATE_SELECT_DR</title>
<path fill="none" stroke="#000000" d="M323.1038,-134.1775C332.7043,-156.7971 348.1352,-196.8595 354,-233 364.4718,-297.5304 344.385,-314.7731 348.777,-380 350.163,-400.5841 353.614,-405.4159 355,-426 356.0749,-441.9639 357.5304,-446.2014 355,-462 348.2055,-504.4214 330.9692,-551.237 319.1142,-580.1373"/>
<polygon fill="#000000" stroke="#000000" points="315.7964,-578.9996 315.1713,-589.576 322.2555,-581.6979 315.7964,-578.9996"/>
<text text-anchor="start" x="348" y="-359" font-family="Helvetica,sans-Serif" font-size="10.00" fill="#000000">i_tms &#160;&#160;</text>
</g>
<!-- STATE_SELECT_IR&#45;&gt;STATE_RESET -->
<g id="edge19" class="edge transition">
<title>STATE_SELECT_IR&#45;&gt;STATE_RESET</title>
<path fill="none" stroke="#000000" d="M478.3323,-544.0403C475.9805,-551.0738 474,-559.2867 474,-567 474,-731 474,-731 474,-731 474,-737.0028 471.915,-742.1977 468.5288,-746.6762"/>
<polygon fill="#000000" stroke="#000000" points="465.8094,-744.445 461.1979,-753.9836 470.7512,-749.4027 465.8094,-744.445"/>
<text text-anchor="start" x="474" y="-646" font-family="Helvetica,sans-Serif" font-size="10.00" fill="#000000">i_tms &#160;&#160;</text>
</g>
<!-- STATE_CAPTURE_IR -->
<g id="node12" class="node state regular">
<title>STATE_CAPTURE_IR</title>
<polygon fill="#ffffff" fill-opacity="0.003922" stroke="transparent" stroke-width="2" points="563.5,-462 420.5,-462 420.5,-426 563.5,-426 563.5,-462"/>
<text text-anchor="start" x="431.8316" y="-440.2" font-family="Helvetica,sans-Serif" font-size="12.00" fill="#000000">STATE_CAPTURE_IR</text>
<path fill="none" stroke="#000000" stroke-width="2" d="M432.8333,-427C432.8333,-427 551.1667,-427 551.1667,-427 556.8333,-427 562.5,-432.6667 562.5,-438.3333 562.5,-438.3333 562.5,-449.6667 562.5,-449.6667 562.5,-455.3333 556.8333,-461 551.1667,-461 551.1667,-461 432.8333,-461 432.8333,-461 427.1667,-461 421.5,-455.3333 421.5,-449.6667 421.5,-449.6667 421.5,-438.3333 421.5,-438.3333 421.5,-432.6667 427.1667,-427 432.8333,-427"/>
</g>
<!-- STATE_SELECT_IR&#45;&gt;STATE_CAPTURE_IR -->
<g id="edge20" class="edge transition">
<title>STATE_SELECT_IR&#45;&gt;STATE_CAPTURE_IR</title>
<path fill="none" stroke="#000000" d="M487.3316,-507.8015C488.0929,-497.3976 489.0643,-484.1215 489.9237,-472.3768"/>
<polygon fill="#000000" stroke="#000000" points="493.4329,-472.3764 490.6721,-462.1476 486.4516,-471.8655 493.4329,-472.3764"/>
<text text-anchor="start" x="489" y="-482" font-family="Helvetica,sans-Serif" font-size="10.00" fill="#000000">not (i_tms) &#160;&#160;</text>
</g>
<!-- STATE_SHIFT_IR -->
<g id="node13" class="node state regular">
<title>STATE_SHIFT_IR</title>
<polygon fill="#ffffff" fill-opacity="0.003922" stroke="transparent" stroke-width="2" points="606,-380 486,-380 486,-344 606,-344 606,-380"/>
<text text-anchor="start" x="496.6644" y="-358.2" font-family="Helvetica,sans-Serif" font-size="12.00" fill="#000000">STATE_SHIFT_IR</text>
<path fill="none" stroke="#000000" stroke-width="2" d="M498.3333,-345C498.3333,-345 593.6667,-345 593.6667,-345 599.3333,-345 605,-350.6667 605,-356.3333 605,-356.3333 605,-367.6667 605,-367.6667 605,-373.3333 599.3333,-379 593.6667,-379 593.6667,-379 498.3333,-379 498.3333,-379 492.6667,-379 487,-373.3333 487,-367.6667 487,-367.6667 487,-356.3333 487,-356.3333 487,-350.6667 492.6667,-345 498.3333,-345"/>
</g>
<!-- STATE_CAPTURE_IR&#45;&gt;STATE_SHIFT_IR -->
<g id="edge22" class="edge transition">
<title>STATE_CAPTURE_IR&#45;&gt;STATE_SHIFT_IR</title>
<path fill="none" stroke="#000000" d="M503.9844,-425.8015C511.1853,-414.8668 520.4756,-400.7593 528.4884,-388.5916"/>
<polygon fill="#000000" stroke="#000000" points="531.4723,-390.4243 534.0492,-380.1476 525.6261,-386.5743 531.4723,-390.4243"/>
<text text-anchor="start" x="522" y="-400" font-family="Helvetica,sans-Serif" font-size="10.00" fill="#000000">not (i_tms) &#160;&#160;</text>
</g>
<!-- STATE_EXIT1_IR -->
<g id="node14" class="node state regular">
<title>STATE_EXIT1_IR</title>
<polygon fill="#ffffff" fill-opacity="0.003922" stroke="transparent" stroke-width="2" points="536.5,-298 417.5,-298 417.5,-262 536.5,-262 536.5,-298"/>
<text text-anchor="start" x="428.8244" y="-276.2" font-family="Helvetica,sans-Serif" font-size="12.00" fill="#000000">STATE_EXIT1_IR</text>
<path fill="none" stroke="#000000" stroke-width="2" d="M429.8333,-263C429.8333,-263 524.1667,-263 524.1667,-263 529.8333,-263 535.5,-268.6667 535.5,-274.3333 535.5,-274.3333 535.5,-285.6667 535.5,-285.6667 535.5,-291.3333 529.8333,-297 524.1667,-297 524.1667,-297 429.8333,-297 429.8333,-297 424.1667,-297 418.5,-291.3333 418.5,-285.6667 418.5,-285.6667 418.5,-274.3333 418.5,-274.3333 418.5,-268.6667 424.1667,-263 429.8333,-263"/>
</g>
<!-- STATE_CAPTURE_IR&#45;&gt;STATE_EXIT1_IR -->
<g id="edge21" class="edge transition">
<title>STATE_CAPTURE_IR&#45;&gt;STATE_EXIT1_IR</title>
<path fill="none" stroke="#000000" d="M472.7349,-425.8294C461.6351,-413.9858 448.7344,-397.5176 442.777,-380 434.3234,-355.1424 446.0111,-326.8318 457.9659,-306.6939"/>
<polygon fill="#000000" stroke="#000000" points="461.0372,-308.3848 463.406,-298.0581 455.1144,-304.6537 461.0372,-308.3848"/>
<text text-anchor="start" x="442" y="-359" font-family="Helvetica,sans-Serif" font-size="10.00" fill="#000000">i_tms &#160;&#160;</text>
</g>
<!-- STATE_SHIFT_IR&#45;&gt;STATE_SHIFT_IR -->
<g id="edge24" class="edge transition">
<title>STATE_SHIFT_IR&#45;&gt;STATE_SHIFT_IR</title>
<path fill="none" stroke="#000000" d="M606.0686,-366.7176C618.8035,-366.2385 628,-364.666 628,-362 628,-360.1255 623.4534,-358.7915 616.327,-357.9982"/>
<polygon fill="#000000" stroke="#000000" points="616.288,-354.487 606.0686,-357.2824 615.8007,-361.4701 616.288,-354.487"/>
<text text-anchor="start" x="628" y="-359" font-family="Helvetica,sans-Serif" font-size="10.00" fill="#000000">not (i_tms) &#160;&#160;</text>
</g>
<!-- STATE_SHIFT_IR&#45;&gt;STATE_EXIT1_IR -->
<g id="edge23" class="edge transition">
<title>STATE_SHIFT_IR&#45;&gt;STATE_EXIT1_IR</title>
<path fill="none" stroke="#000000" d="M530.6867,-343.8015C521.3068,-332.6545 509.1525,-318.2103 498.7813,-305.8851"/>
<polygon fill="#000000" stroke="#000000" points="501.3871,-303.5457 492.2705,-298.1476 496.031,-308.0526 501.3871,-303.5457"/>
<text text-anchor="start" x="516" y="-318" font-family="Helvetica,sans-Serif" font-size="10.00" fill="#000000">i_tms &#160;&#160;</text>
</g>
<!-- STATE_PAUSE_IR -->
<g id="node15" class="node state regular">
<title>STATE_PAUSE_IR</title>
<polygon fill="#ffffff" fill-opacity="0.003922" stroke="transparent" stroke-width="2" points="561,-216 435,-216 435,-180 561,-180 561,-216"/>
<text text-anchor="start" x="445.6584" y="-194.2" font-family="Helvetica,sans-Serif" font-size="12.00" fill="#000000">STATE_PAUSE_IR</text>
<path fill="none" stroke="#000000" stroke-width="2" d="M447.3333,-181C447.3333,-181 548.6667,-181 548.6667,-181 554.3333,-181 560,-186.6667 560,-192.3333 560,-192.3333 560,-203.6667 560,-203.6667 560,-209.3333 554.3333,-215 548.6667,-215 548.6667,-215 447.3333,-215 447.3333,-215 441.6667,-215 436,-209.3333 436,-203.6667 436,-203.6667 436,-192.3333 436,-192.3333 436,-186.6667 441.6667,-181 447.3333,-181"/>
</g>
<!-- STATE_EXIT1_IR&#45;&gt;STATE_PAUSE_IR -->
<g id="edge26" class="edge transition">
<title>STATE_EXIT1_IR&#45;&gt;STATE_PAUSE_IR</title>
<path fill="none" stroke="#000000" d="M481.6606,-261.8015C484.3522,-251.2915 487.7944,-237.8503 490.8247,-226.0177"/>
<polygon fill="#000000" stroke="#000000" points="494.262,-226.7033 493.3524,-216.1476 487.4809,-224.9666 494.262,-226.7033"/>
<text text-anchor="start" x="488" y="-236" font-family="Helvetica,sans-Serif" font-size="10.00" fill="#000000">not (i_tms) &#160;&#160;</text>
</g>
<!-- STATE_UPDATE_IR -->
<g id="node17" class="node state regular">
<title>STATE_UPDATE_IR</title>
<polygon fill="#ffffff" fill-opacity="0.003922" stroke="transparent" stroke-width="2" points="316,-52 182,-52 182,-16 316,-16 316,-52"/>
<text text-anchor="start" x="192.663" y="-30.2" font-family="Helvetica,sans-Serif" font-size="12.00" fill="#000000">STATE_UPDATE_IR</text>
<path fill="none" stroke="#000000" stroke-width="2" d="M194.3333,-17C194.3333,-17 303.6667,-17 303.6667,-17 309.3333,-17 315,-22.6667 315,-28.3333 315,-28.3333 315,-39.6667 315,-39.6667 315,-45.3333 309.3333,-51 303.6667,-51 303.6667,-51 194.3333,-51 194.3333,-51 188.6667,-51 183,-45.3333 183,-39.6667 183,-39.6667 183,-28.3333 183,-28.3333 183,-22.6667 188.6667,-17 194.3333,-17"/>
</g>
<!-- STATE_EXIT1_IR&#45;&gt;STATE_UPDATE_IR -->
<g id="edge25" class="edge transition">
<title>STATE_EXIT1_IR&#45;&gt;STATE_UPDATE_IR</title>
<path fill="none" stroke="#000000" d="M456.7108,-261.9479C444.9301,-250.1489 431.0597,-233.686 424,-216 411.8617,-185.591 419,-175.2422 419,-142.5 419,-142.5 419,-142.5 419,-75 419,-54.3954 371.2087,-44.1143 326.3052,-39.0019"/>
<polygon fill="#000000" stroke="#000000" points="326.502,-35.5032 316.1885,-37.9284 325.7633,-42.4641 326.502,-35.5032"/>
<text text-anchor="start" x="418" y="-154" font-family="Helvetica,sans-Serif" font-size="10.00" fill="#000000">i_tms &#160;&#160;</text>
</g>
<!-- STATE_PAUSE_IR&#45;&gt;STATE_PAUSE_IR -->
<g id="edge28" class="edge transition">
<title>STATE_PAUSE_IR&#45;&gt;STATE_PAUSE_IR</title>
<path fill="none" stroke="#000000" d="M561.0165,-202.689C573.8268,-202.1782 583,-200.6152 583,-198 583,-196.1612 578.4649,-194.8425 571.3191,-194.0441"/>
<polygon fill="#000000" stroke="#000000" points="571.2397,-190.5297 561.0165,-193.311 570.7428,-197.512 571.2397,-190.5297"/>
<text text-anchor="start" x="583" y="-195" font-family="Helvetica,sans-Serif" font-size="10.00" fill="#000000">not (i_tms) &#160;&#160;</text>
</g>
<!-- STATE_EXIT2_IR -->
<g id="node16" class="node state regular">
<title>STATE_EXIT2_IR</title>
<polygon fill="#ffffff" fill-opacity="0.003922" stroke="transparent" stroke-width="2" points="561.5,-134 442.5,-134 442.5,-98 561.5,-98 561.5,-134"/>
<text text-anchor="start" x="453.8244" y="-112.2" font-family="Helvetica,sans-Serif" font-size="12.00" fill="#000000">STATE_EXIT2_IR</text>
<path fill="none" stroke="#000000" stroke-width="2" d="M454.8333,-99C454.8333,-99 549.1667,-99 549.1667,-99 554.8333,-99 560.5,-104.6667 560.5,-110.3333 560.5,-110.3333 560.5,-121.6667 560.5,-121.6667 560.5,-127.3333 554.8333,-133 549.1667,-133 549.1667,-133 454.8333,-133 454.8333,-133 449.1667,-133 443.5,-127.3333 443.5,-121.6667 443.5,-121.6667 443.5,-110.3333 443.5,-110.3333 443.5,-104.6667 449.1667,-99 454.8333,-99"/>
</g>
<!-- STATE_PAUSE_IR&#45;&gt;STATE_EXIT2_IR -->
<g id="edge27" class="edge transition">
<title>STATE_PAUSE_IR&#45;&gt;STATE_EXIT2_IR</title>
<path fill="none" stroke="#000000" d="M498.8877,-179.8015C499.3952,-169.3976 500.0429,-156.1215 500.6158,-144.3768"/>
<polygon fill="#000000" stroke="#000000" points="504.1233,-144.3063 501.1148,-134.1476 497.1316,-143.9651 504.1233,-144.3063"/>
<text text-anchor="start" x="500" y="-154" font-family="Helvetica,sans-Serif" font-size="10.00" fill="#000000">i_tms &#160;&#160;</text>
</g>
<!-- STATE_EXIT2_IR&#45;&gt;STATE_SHIFT_IR -->
<g id="edge30" class="edge transition">
<title>STATE_EXIT2_IR&#45;&gt;STATE_SHIFT_IR</title>
<path fill="none" stroke="#000000" d="M561.8544,-126.8172C592.2591,-135.668 626.5843,-151.5821 645,-180 653.7012,-193.4272 649.1949,-200.5597 645,-216 639.9339,-234.6472 623,-234.1769 623,-253.5 623,-321 623,-321 623,-321 623,-329.0174 619.7074,-335.4722 614.484,-340.6678"/>
<polygon fill="#000000" stroke="#000000" points="612.063,-338.1155 606.2921,-347.0008 616.3443,-343.6535 612.063,-338.1155"/>
<text text-anchor="start" x="633" y="-236" font-family="Helvetica,sans-Serif" font-size="10.00" fill="#000000">not (i_tms) &#160;&#160;</text>
</g>
<!-- STATE_EXIT2_IR&#45;&gt;STATE_UPDATE_IR -->
<g id="edge29" class="edge transition">
<title>STATE_EXIT2_IR&#45;&gt;STATE_UPDATE_IR</title>
<path fill="none" stroke="#000000" d="M482.7184,-97.855C468.0442,-85.1338 446.7296,-68.8745 425,-60 407.2165,-52.7371 365.1646,-46.394 326.6255,-41.7914"/>
<polygon fill="#000000" stroke="#000000" points="326.7356,-38.2806 316.3977,-40.5998 325.9255,-45.2336 326.7356,-38.2806"/>
<text text-anchor="start" x="461" y="-72" font-family="Helvetica,sans-Serif" font-size="10.00" fill="#000000">i_tms &#160;&#160;</text>
</g>
<!-- STATE_UPDATE_IR&#45;&gt;STATE_IDLE -->
<g id="edge32" class="edge transition">
<title>STATE_UPDATE_IR&#45;&gt;STATE_IDLE</title>
<path fill="none" stroke="#000000" d="M181.8398,-39.6334C114.2684,-46.2343 20,-58.4152 20,-75 20,-306.5 20,-306.5 20,-306.5 20,-379.4756 28,-397.5244 28,-470.5 28,-649 28,-649 28,-649 28,-673.4302 185.1817,-683.95 272.7522,-687.9152"/>
<polygon fill="#000000" stroke="#000000" points="272.6689,-691.4148 282.8125,-688.3558 272.9753,-684.4215 272.6689,-691.4148"/>
<text text-anchor="start" x="23" y="-359" font-family="Helvetica,sans-Serif" font-size="10.00" fill="#000000">not (i_tms) &#160;&#160;</text>
</g>
<!-- STATE_UPDATE_IR&#45;&gt;STATE_SELECT_DR -->
<g id="edge31" class="edge transition">
<title>STATE_UPDATE_IR&#45;&gt;STATE_SELECT_DR</title>
<path fill="none" stroke="#000000" d="M181.9492,-42.6509C129.0054,-50.4287 64,-62.5196 64,-75 64,-280 64,-280 64,-280 64,-302.8389 72.7138,-307.6068 84.777,-327 89.9803,-335.3649 95.6374,-334.7405 99,-344 104.4615,-359.039 104.0065,-364.8035 99,-380 91.045,-404.1462 76.2948,-403.2239 65,-426 55.8459,-444.4593 52,-449.8956 52,-470.5 52,-567 52,-567 52,-567 52,-585.0401 152.7715,-596.6014 227.6175,-602.7004"/>
<polygon fill="#000000" stroke="#000000" points="227.7475,-606.2216 237.9933,-603.5248 228.302,-599.2436 227.7475,-606.2216"/>
<text text-anchor="start" x="84" y="-318" font-family="Helvetica,sans-Serif" font-size="10.00" fill="#000000">i_tms &#160;&#160;</text>
</g>
</g>
</svg>
