<svg xmlns="http://www.w3.org/2000/svg" xmlns:xlink="http://www.w3.org/1999/xlink" xmlns:s="https://github.com/nturley/netlistsvg" width="497" height="1040.5"><style>svg {
  stroke:#000;
  fill:none;
}
text {
  fill:#000;
  stroke:none;
  font-size:10px;
  font-weight: bold;
  font-family: "Courier New", monospace;
}
line {
    stroke-linecap: round;
}
.nodelabel {
  text-anchor: middle;
}
.inputPortLabel {
  text-anchor: end;
}
.splitjoinBody {
  fill:#000;
}</style><g s:type="generic" transform="translate(395,715.5)" s:width="30" s:height="40" id="cell_u_jtag_dataReg"><text x="15" y="-4" class="nodelabel cell_u_jtag_dataReg" s:attribute="ref">jtag_dataReg</text><rect width="30" height="180" s:generic="body" fill="#ffae46" rx="0" class="cell_u_jtag_dataReg"/><g transform="translate(0,10)" s:x="0" s:y="10" s:pid="in0" id="port_u_jtag_dataReg~i_bsr"><text x="-3" y="-4" class="inputPortLabel cell_u_jtag_dataReg">i_bsr</text></g><g transform="translate(0,30)" s:x="0" s:y="10" s:pid="in0" id="port_u_jtag_dataReg~i_instrReg"><text x="-3" y="-4" class="inputPortLabel cell_u_jtag_dataReg">i_instrReg</text></g><g transform="translate(0,50)" s:x="0" s:y="10" s:pid="in0" id="port_u_jtag_dataReg~i_shiftReg"><text x="-3" y="-4" class="inputPortLabel cell_u_jtag_dataReg">i_shiftReg</text></g><g transform="translate(0,70)" s:x="0" s:y="10" s:pid="in0" id="port_u_jtag_dataReg~i_stateIsUpdateDr"><text x="-3" y="-4" class="inputPortLabel cell_u_jtag_dataReg">i_stateIsUpdateDr</text></g><g transform="translate(0,90)" s:x="0" s:y="10" s:pid="in0" id="port_u_jtag_dataReg~i_tclk"><text x="-3" y="-4" class="inputPortLabel cell_u_jtag_dataReg">i_tclk</text></g><g transform="translate(0,110)" s:x="0" s:y="10" s:pid="in0" id="port_u_jtag_dataReg~i_tdi"><text x="-3" y="-4" class="inputPortLabel cell_u_jtag_dataReg">i_tdi</text></g><g transform="translate(0,130)" s:x="0" s:y="10" s:pid="in0" id="port_u_jtag_dataReg~i_trst_n"><text x="-3" y="-4" class="inputPortLabel cell_u_jtag_dataReg">i_trst_n</text></g><g transform="translate(0,150)" s:x="0" s:y="10" s:pid="in0" id="port_u_jtag_dataReg~o_dataReg"><text x="-3" y="-4" class="inputPortLabel cell_u_jtag_dataReg">o_dataReg</text></g><g transform="translate(0,170)" s:x="0" s:y="10" s:pid="in0" id="port_u_jtag_dataReg~o_userData"><text x="-3" y="-4" class="inputPortLabel cell_u_jtag_dataReg">o_userData</text></g></g><g s:type="generic" transform="translate(395,279.5)" s:width="30" s:height="40" id="cell_u_jtag_instrReg"><text x="15" y="-4" class="nodelabel cell_u_jtag_instrReg" s:attribute="ref">jtag_instrReg</text><rect width="30" height="120" s:generic="body" fill="#ffae46" rx="0" class="cell_u_jtag_instrReg"/><g transform="translate(0,10)" s:x="0" s:y="10" s:pid="in0" id="port_u_jtag_instrReg~i_shiftReg"><text x="-3" y="-4" class="inputPortLabel cell_u_jtag_instrReg">i_shiftReg</text></g><g transform="translate(0,30)" s:x="0" s:y="10" s:pid="in0" id="port_u_jtag_instrReg~i_stateIsCaptureIr"><text x="-3" y="-4" class="inputPortLabel cell_u_jtag_instrReg">i_stateIsCaptureIr</text></g><g transform="translate(0,50)" s:x="0" s:y="10" s:pid="in0" id="port_u_jtag_instrReg~i_stateIsUpdateIr"><text x="-3" y="-4" class="inputPortLabel cell_u_jtag_instrReg">i_stateIsUpdateIr</text></g><g transform="translate(0,70)" s:x="0" s:y="10" s:pid="in0" id="port_u_jtag_instrReg~i_tclk"><text x="-3" y="-4" class="inputPortLabel cell_u_jtag_instrReg">i_tclk</text></g><g transform="translate(0,90)" s:x="0" s:y="10" s:pid="in0" id="port_u_jtag_instrReg~i_trst_n"><text x="-3" y="-4" class="inputPortLabel cell_u_jtag_instrReg">i_trst_n</text></g><g transform="translate(0,110)" s:x="0" s:y="10" s:pid="in0" id="port_u_jtag_instrReg~o_instrReg"><text x="-3" y="-4" class="inputPortLabel cell_u_jtag_instrReg">o_instrReg</text></g></g><g s:type="generic" transform="translate(395,447.5)" s:width="30" s:height="40" id="cell_u_jtag_shiftReg"><text x="15" y="-4" class="nodelabel cell_u_jtag_shiftReg" s:attribute="ref">jtag_shiftReg</text><rect width="30" height="220" s:generic="body" fill="#ffae46" rx="0" class="cell_u_jtag_shiftReg"/><g transform="translate(0,10)" s:x="0" s:y="10" s:pid="in0" id="port_u_jtag_shiftReg~i_dataReg"><text x="-3" y="-4" class="inputPortLabel cell_u_jtag_shiftReg">i_dataReg</text></g><g transform="translate(0,30)" s:x="0" s:y="10" s:pid="in0" id="port_u_jtag_shiftReg~i_instrReg"><text x="-3" y="-4" class="inputPortLabel cell_u_jtag_shiftReg">i_instrReg</text></g><g transform="translate(0,50)" s:x="0" s:y="10" s:pid="in0" id="port_u_jtag_shiftReg~i_stateIsCaptureDr"><text x="-3" y="-4" class="inputPortLabel cell_u_jtag_shiftReg">i_stateIsCaptureDr</text></g><g transform="translate(0,70)" s:x="0" s:y="10" s:pid="in0" id="port_u_jtag_shiftReg~i_stateIsCaptureIr"><text x="-3" y="-4" class="inputPortLabel cell_u_jtag_shiftReg">i_stateIsCaptureIr</text></g><g transform="translate(0,90)" s:x="0" s:y="10" s:pid="in0" id="port_u_jtag_shiftReg~i_stateIsShiftDr"><text x="-3" y="-4" class="inputPortLabel cell_u_jtag_shiftReg">i_stateIsShiftDr</text></g><g transform="translate(0,110)" s:x="0" s:y="10" s:pid="in0" id="port_u_jtag_shiftReg~i_stateIsShiftIr"><text x="-3" y="-4" class="inputPortLabel cell_u_jtag_shiftReg">i_stateIsShiftIr</text></g><g transform="translate(0,130)" s:x="0" s:y="10" s:pid="in0" id="port_u_jtag_shiftReg~i_tclk"><text x="-3" y="-4" class="inputPortLabel cell_u_jtag_shiftReg">i_tclk</text></g><g transform="translate(0,150)" s:x="0" s:y="10" s:pid="in0" id="port_u_jtag_shiftReg~i_tdi"><text x="-3" y="-4" class="inputPortLabel cell_u_jtag_shiftReg">i_tdi</text></g><g transform="translate(0,170)" s:x="0" s:y="10" s:pid="in0" id="port_u_jtag_shiftReg~i_trst_n"><text x="-3" y="-4" class="inputPortLabel cell_u_jtag_shiftReg">i_trst_n</text></g><g transform="translate(0,190)" s:x="0" s:y="10" s:pid="in0" id="port_u_jtag_shiftReg~o_shiftReg"><text x="-3" y="-4" class="inputPortLabel cell_u_jtag_shiftReg">o_shiftReg</text></g><g transform="translate(0,210)" s:x="0" s:y="10" s:pid="in0" id="port_u_jtag_shiftReg~o_tdo"><text x="-3" y="-4" class="inputPortLabel cell_u_jtag_shiftReg">o_tdo</text></g></g><g s:type="generic" transform="translate(395,51.5)" s:width="30" s:height="40" id="cell_u_jtag_tap"><text x="15" y="-4" class="nodelabel cell_u_jtag_tap" s:attribute="ref">jtag_tap</text><rect width="30" height="180" s:generic="body" fill="#ffae46" rx="0" class="cell_u_jtag_tap"/><g transform="translate(0,10)" s:x="0" s:y="10" s:pid="in0" id="port_u_jtag_tap~i_tclk"><text x="-3" y="-4" class="inputPortLabel cell_u_jtag_tap">i_tclk</text></g><g transform="translate(0,30)" s:x="0" s:y="10" s:pid="in0" id="port_u_jtag_tap~i_tms"><text x="-3" y="-4" class="inputPortLabel cell_u_jtag_tap">i_tms</text></g><g transform="translate(0,50)" s:x="0" s:y="10" s:pid="in0" id="port_u_jtag_tap~i_trst_n"><text x="-3" y="-4" class="inputPortLabel cell_u_jtag_tap">i_trst_n</text></g><g transform="translate(0,70)" s:x="0" s:y="10" s:pid="in0" id="port_u_jtag_tap~o_stateIsCaptureDr"><text x="-3" y="-4" class="inputPortLabel cell_u_jtag_tap">o_stateIsCaptureDr</text></g><g transform="translate(0,90)" s:x="0" s:y="10" s:pid="in0" id="port_u_jtag_tap~o_stateIsCaptureIr"><text x="-3" y="-4" class="inputPortLabel cell_u_jtag_tap">o_stateIsCaptureIr</text></g><g transform="translate(0,110)" s:x="0" s:y="10" s:pid="in0" id="port_u_jtag_tap~o_stateIsShiftDr"><text x="-3" y="-4" class="inputPortLabel cell_u_jtag_tap">o_stateIsShiftDr</text></g><g transform="translate(0,130)" s:x="0" s:y="10" s:pid="in0" id="port_u_jtag_tap~o_stateIsShiftIr"><text x="-3" y="-4" class="inputPortLabel cell_u_jtag_tap">o_stateIsShiftIr</text></g><g transform="translate(0,150)" s:x="0" s:y="10" s:pid="in0" id="port_u_jtag_tap~o_stateIsUpdateDr"><text x="-3" y="-4" class="inputPortLabel cell_u_jtag_tap">o_stateIsUpdateDr</text></g><g transform="translate(0,170)" s:x="0" s:y="10" s:pid="in0" id="port_u_jtag_tap~o_stateIsUpdateIr"><text x="-3" y="-4" class="inputPortLabel cell_u_jtag_tap">o_stateIsUpdateIr</text></g></g><g s:type="inputExt" transform="translate(77,340)" s:width="30" s:height="20" id="cell_i_tclk"><text x="15" y="-4" class="nodelabel cell_i_tclk" s:attribute="ref">i_tclk</text><s:alias val="$_inputExt_"/><path d="M0,0 L0,20 L15,20 L30,10 L15,0 Z" fill="#8bcaff" class="cell_i_tclk"/><g s:x="30" s:y="10" s:pid="Y"/></g><g s:type="inputExt" transform="translate(77,608)" s:width="30" s:height="20" id="cell_i_trst_n"><text x="15" y="-4" class="nodelabel cell_i_trst_n" s:attribute="ref">i_trst_n</text><s:alias val="$_inputExt_"/><path d="M0,0 L0,20 L15,20 L30,10 L15,0 Z" fill="#8bcaff" class="cell_i_trst_n"/><g s:x="30" s:y="10" s:pid="Y"/></g><g s:type="inputExt" transform="translate(77,853.5)" s:width="30" s:height="20" id="cell_i_tdi"><text x="15" y="-4" class="nodelabel cell_i_tdi" s:attribute="ref">i_tdi</text><s:alias val="$_inputExt_"/><path d="M0,0 L0,20 L15,20 L30,10 L15,0 Z" fill="#8bcaff" class="cell_i_tdi"/><g s:x="30" s:y="10" s:pid="Y"/></g><g s:type="inputExt" transform="translate(77,22)" s:width="30" s:height="20" id="cell_i_tms"><text x="15" y="-4" class="nodelabel cell_i_tms" s:attribute="ref">i_tms</text><s:alias val="$_inputExt_"/><path d="M0,0 L0,20 L15,20 L30,10 L15,0 Z" fill="#8bcaff" class="cell_i_tms"/><g s:x="30" s:y="10" s:pid="Y"/></g><g s:type="outputExt" transform="translate(395,943.5)" s:width="30" s:height="20" id="cell_o_tdo"><text x="15" y="-4" class="nodelabel cell_o_tdo" s:attribute="ref">o_tdo</text><s:alias val="$_outputExt_"/><path d="M30,0 L30,20 L15,20 L0,10 L15,0 Z" fill="#169300" class="cell_o_tdo"/><g s:x="0" s:y="10" s:pid="A"/></g><g s:type="inputExt" transform="translate(12,902.5)" s:width="30" s:height="20" id="cell_i_bsr"><text x="15" y="-4" class="nodelabel cell_i_bsr" s:attribute="ref">i_bsr</text><s:alias val="$_inputExt_"/><path d="M0,0 L0,20 L15,20 L30,10 L15,0 Z" fill="#8bcaff" class="cell_i_bsr"/><g s:x="30" s:y="10" s:pid="Y"/></g><g s:type="outputExt" transform="translate(395,1008.5)" s:width="30" s:height="20" id="cell_o_userData"><text x="15" y="-4" class="nodelabel cell_o_userData" s:attribute="ref">o_userData</text><s:alias val="$_outputExt_"/><path d="M30,0 L30,20 L15,20 L0,10 L15,0 Z" fill="#169300" class="cell_o_userData"/><g s:x="0" s:y="10" s:pid="A"/></g><line x1="42" x2="265" y1="912.5" y2="912.5" class="net_7,8,9,10,11,12,13,14,15,16,17,18,19,20,21,22,23,24,25,26,27,28,29,30,31,32,33,34,35,36,37,38 width_32" style="stroke-width: 2"/><line x1="265" x2="265" y1="912.5" y2="726" class="net_7,8,9,10,11,12,13,14,15,16,17,18,19,20,21,22,23,24,25,26,27,28,29,30,31,32,33,34,35,36,37,38 width_32" style="stroke-width: 2"/><line x1="265" x2="395" y1="726" y2="726" class="net_7,8,9,10,11,12,13,14,15,16,17,18,19,20,21,22,23,24,25,26,27,28,29,30,31,32,33,34,35,36,37,38 width_32" style="stroke-width: 2"/><line x1="107" x2="245" y1="731" y2="731" class="net_71,72,73,74,75,76,77,78,79,80,81,82,83,84,85,86,87,88,89,90,91,92,93,94,95,96,97,98,99,100,101,102 width_32" style="stroke-width: 2"/><line x1="245" x2="245" y1="731" y2="746" class="net_71,72,73,74,75,76,77,78,79,80,81,82,83,84,85,86,87,88,89,90,91,92,93,94,95,96,97,98,99,100,101,102 width_32" style="stroke-width: 2"/><circle cx="245" cy="731" r="3" style="fill:#000" class="net_71,72,73,74,75,76,77,78,79,80,81,82,83,84,85,86,87,88,89,90,91,92,93,94,95,96,97,98,99,100,101,102 width_32"/><line x1="245" x2="394" y1="746" y2="746" class="net_71,72,73,74,75,76,77,78,79,80,81,82,83,84,85,86,87,88,89,90,91,92,93,94,95,96,97,98,99,100,101,102 width_32" style="stroke-width: 2"/><line x1="107" x2="245" y1="731" y2="731" class="net_71,72,73,74,75,76,77,78,79,80,81,82,83,84,85,86,87,88,89,90,91,92,93,94,95,96,97,98,99,100,101,102 width_32" style="stroke-width: 2"/><line x1="245" x2="245" y1="731" y2="390" class="net_71,72,73,74,75,76,77,78,79,80,81,82,83,84,85,86,87,88,89,90,91,92,93,94,95,96,97,98,99,100,101,102 width_32" style="stroke-width: 2"/><line x1="245" x2="394" y1="390" y2="390" class="net_71,72,73,74,75,76,77,78,79,80,81,82,83,84,85,86,87,88,89,90,91,92,93,94,95,96,97,98,99,100,101,102 width_32" style="stroke-width: 2"/><line x1="107" x2="245" y1="731" y2="731" class="net_71,72,73,74,75,76,77,78,79,80,81,82,83,84,85,86,87,88,89,90,91,92,93,94,95,96,97,98,99,100,101,102 width_32" style="stroke-width: 2"/><line x1="245" x2="245" y1="731" y2="478" class="net_71,72,73,74,75,76,77,78,79,80,81,82,83,84,85,86,87,88,89,90,91,92,93,94,95,96,97,98,99,100,101,102 width_32" style="stroke-width: 2"/><circle cx="245" cy="478" r="3" style="fill:#000" class="net_71,72,73,74,75,76,77,78,79,80,81,82,83,84,85,86,87,88,89,90,91,92,93,94,95,96,97,98,99,100,101,102 width_32"/><line x1="245" x2="394" y1="478" y2="478" class="net_71,72,73,74,75,76,77,78,79,80,81,82,83,84,85,86,87,88,89,90,91,92,93,94,95,96,97,98,99,100,101,102 width_32" style="stroke-width: 2"/><line x1="107" x2="394" y1="766" y2="766" class="net_103,104,105,106,107,108,109,110,111,112,113,114,115,116,117,118,119,120,121,122,123,124,125,126,127,128,129,130,131,132,133,134 width_32" style="stroke-width: 2"/><line x1="107" x2="225" y1="766" y2="766" class="net_103,104,105,106,107,108,109,110,111,112,113,114,115,116,117,118,119,120,121,122,123,124,125,126,127,128,129,130,131,132,133,134 width_32" style="stroke-width: 2"/><line x1="225" x2="225" y1="766" y2="290" class="net_103,104,105,106,107,108,109,110,111,112,113,114,115,116,117,118,119,120,121,122,123,124,125,126,127,128,129,130,131,132,133,134 width_32" style="stroke-width: 2"/><circle cx="225" cy="766" r="3" style="fill:#000" class="net_103,104,105,106,107,108,109,110,111,112,113,114,115,116,117,118,119,120,121,122,123,124,125,126,127,128,129,130,131,132,133,134 width_32"/><line x1="225" x2="395" y1="290" y2="290" class="net_103,104,105,106,107,108,109,110,111,112,113,114,115,116,117,118,119,120,121,122,123,124,125,126,127,128,129,130,131,132,133,134 width_32" style="stroke-width: 2"/><line x1="107" x2="225" y1="766" y2="766" class="net_103,104,105,106,107,108,109,110,111,112,113,114,115,116,117,118,119,120,121,122,123,124,125,126,127,128,129,130,131,132,133,134 width_32" style="stroke-width: 2"/><line x1="225" x2="225" y1="766" y2="638" class="net_103,104,105,106,107,108,109,110,111,112,113,114,115,116,117,118,119,120,121,122,123,124,125,126,127,128,129,130,131,132,133,134 width_32" style="stroke-width: 2"/><circle cx="225" cy="638" r="3" style="fill:#000" class="net_103,104,105,106,107,108,109,110,111,112,113,114,115,116,117,118,119,120,121,122,123,124,125,126,127,128,129,130,131,132,133,134 width_32"/><line x1="225" x2="394" y1="638" y2="638" class="net_103,104,105,106,107,108,109,110,111,112,113,114,115,116,117,118,119,120,121,122,123,124,125,126,127,128,129,130,131,132,133,134 width_32" style="stroke-width: 2"/><line x1="107" x2="135" y1="563" y2="563" class="net_135 width_1" style="stroke-width: 1"/><line x1="135" x2="135" y1="563" y2="786" class="net_135 width_1" style="stroke-width: 1"/><circle cx="135" cy="563" r="2" style="fill:#000" class="net_135 width_1"/><line x1="135" x2="394" y1="786" y2="786" class="net_135 width_1" style="stroke-width: 1"/><line x1="107" x2="135" y1="563" y2="563" class="net_135 width_1" style="stroke-width: 1"/><line x1="135" x2="135" y1="563" y2="202" class="net_135 width_1" style="stroke-width: 1"/><line x1="135" x2="394" y1="202" y2="202" class="net_135 width_1" style="stroke-width: 1"/><line x1="107" x2="165" y1="350" y2="350" class="net_2 width_1" style="stroke-width: 1"/><line x1="165" x2="165" y1="350" y2="806" class="net_2 width_1" style="stroke-width: 1"/><circle cx="165" cy="350" r="2" style="fill:#000" class="net_2 width_1"/><line x1="165" x2="394" y1="806" y2="806" class="net_2 width_1" style="stroke-width: 1"/><line x1="107" x2="394" y1="350" y2="350" class="net_2 width_1" style="stroke-width: 1"/><line x1="107" x2="165" y1="350" y2="350" class="net_2 width_1" style="stroke-width: 1"/><line x1="165" x2="165" y1="350" y2="578" class="net_2 width_1" style="stroke-width: 1"/><circle cx="165" cy="578" r="2" style="fill:#000" class="net_2 width_1"/><line x1="165" x2="394" y1="578" y2="578" class="net_2 width_1" style="stroke-width: 1"/><line x1="107" x2="165" y1="350" y2="350" class="net_2 width_1" style="stroke-width: 1"/><line x1="165" x2="165" y1="350" y2="62" class="net_2 width_1" style="stroke-width: 1"/><line x1="165" x2="395" y1="62" y2="62" class="net_2 width_1" style="stroke-width: 1"/><line x1="107" x2="145" y1="863.5" y2="863.5" class="net_4 width_1" style="stroke-width: 1"/><line x1="145" x2="145" y1="863.5" y2="826" class="net_4 width_1" style="stroke-width: 1"/><circle cx="145" cy="826" r="2" style="fill:#000" class="net_4 width_1"/><line x1="145" x2="394" y1="826" y2="826" class="net_4 width_1" style="stroke-width: 1"/><line x1="107" x2="145" y1="863.5" y2="863.5" class="net_4 width_1" style="stroke-width: 1"/><line x1="145" x2="145" y1="863.5" y2="598" class="net_4 width_1" style="stroke-width: 1"/><line x1="145" x2="394" y1="598" y2="598" class="net_4 width_1" style="stroke-width: 1"/><line x1="107" x2="175" y1="618" y2="618" class="net_3 width_1" style="stroke-width: 1"/><line x1="175" x2="175" y1="618" y2="846" class="net_3 width_1" style="stroke-width: 1"/><circle cx="175" cy="618" r="2" style="fill:#000" class="net_3 width_1"/><line x1="175" x2="394" y1="846" y2="846" class="net_3 width_1" style="stroke-width: 1"/><line x1="107" x2="175" y1="618" y2="618" class="net_3 width_1" style="stroke-width: 1"/><line x1="175" x2="175" y1="618" y2="370" class="net_3 width_1" style="stroke-width: 1"/><circle cx="175" cy="370" r="2" style="fill:#000" class="net_3 width_1"/><line x1="175" x2="394" y1="370" y2="370" class="net_3 width_1" style="stroke-width: 1"/><line x1="107" x2="394" y1="618" y2="618" class="net_3 width_1" style="stroke-width: 1"/><line x1="107" x2="175" y1="618" y2="618" class="net_3 width_1" style="stroke-width: 1"/><line x1="175" x2="175" y1="618" y2="102" class="net_3 width_1" style="stroke-width: 1"/><line x1="175" x2="394" y1="102" y2="102" class="net_3 width_1" style="stroke-width: 1"/><line x1="107" x2="155" y1="808.5" y2="808.5" class="net_136,137,138,139,140,141,142,143,144,145,146,147,148,149,150,151,152,153,154,155,156,157,158,159,160,161,162,163,164,165,166,167 width_32" style="stroke-width: 2"/><line x1="155" x2="155" y1="808.5" y2="866" class="net_136,137,138,139,140,141,142,143,144,145,146,147,148,149,150,151,152,153,154,155,156,157,158,159,160,161,162,163,164,165,166,167 width_32" style="stroke-width: 2"/><circle cx="155" cy="808.5" r="3" style="fill:#000" class="net_136,137,138,139,140,141,142,143,144,145,146,147,148,149,150,151,152,153,154,155,156,157,158,159,160,161,162,163,164,165,166,167 width_32"/><line x1="155" x2="394" y1="866" y2="866" class="net_136,137,138,139,140,141,142,143,144,145,146,147,148,149,150,151,152,153,154,155,156,157,158,159,160,161,162,163,164,165,166,167 width_32" style="stroke-width: 2"/><line x1="107" x2="155" y1="808.5" y2="808.5" class="net_136,137,138,139,140,141,142,143,144,145,146,147,148,149,150,151,152,153,154,155,156,157,158,159,160,161,162,163,164,165,166,167 width_32" style="stroke-width: 2"/><line x1="155" x2="155" y1="808.5" y2="458" class="net_136,137,138,139,140,141,142,143,144,145,146,147,148,149,150,151,152,153,154,155,156,157,158,159,160,161,162,163,164,165,166,167 width_32" style="stroke-width: 2"/><line x1="155" x2="395" y1="458" y2="458" class="net_136,137,138,139,140,141,142,143,144,145,146,147,148,149,150,151,152,153,154,155,156,157,158,159,160,161,162,163,164,165,166,167 width_32" style="stroke-width: 2"/><line x1="107" x2="275" y1="1018.5" y2="1018.5" class="net_39,40,41,42,43,44,45,46,47,48,49,50,51,52,53,54,55,56,57,58,59,60,61,62,63,64,65,66,67,68,69,70 width_32" style="stroke-width: 2"/><line x1="275" x2="275" y1="1018.5" y2="886" class="net_39,40,41,42,43,44,45,46,47,48,49,50,51,52,53,54,55,56,57,58,59,60,61,62,63,64,65,66,67,68,69,70 width_32" style="stroke-width: 2"/><circle cx="275" cy="1018.5" r="3" style="fill:#000" class="net_39,40,41,42,43,44,45,46,47,48,49,50,51,52,53,54,55,56,57,58,59,60,61,62,63,64,65,66,67,68,69,70 width_32"/><line x1="275" x2="394" y1="886" y2="886" class="net_39,40,41,42,43,44,45,46,47,48,49,50,51,52,53,54,55,56,57,58,59,60,61,62,63,64,65,66,67,68,69,70 width_32" style="stroke-width: 2"/><line x1="107" x2="395" y1="1018.5" y2="1018.5" class="net_39,40,41,42,43,44,45,46,47,48,49,50,51,52,53,54,55,56,57,58,59,60,61,62,63,64,65,66,67,68,69,70 width_32" style="stroke-width: 2"/><line x1="107" x2="235" y1="112" y2="112" class="net_168 width_1" style="stroke-width: 1"/><line x1="235" x2="235" y1="112" y2="310" class="net_168 width_1" style="stroke-width: 1"/><circle cx="235" cy="310" r="2" style="fill:#000" class="net_168 width_1"/><line x1="235" x2="394" y1="310" y2="310" class="net_168 width_1" style="stroke-width: 1"/><line x1="107" x2="235" y1="112" y2="112" class="net_168 width_1" style="stroke-width: 1"/><line x1="235" x2="235" y1="112" y2="518" class="net_168 width_1" style="stroke-width: 1"/><line x1="235" x2="394" y1="518" y2="518" class="net_168 width_1" style="stroke-width: 1"/><line x1="107" x2="235" y1="112" y2="112" class="net_168 width_1" style="stroke-width: 1"/><line x1="235" x2="235" y1="112" y2="142" class="net_168 width_1" style="stroke-width: 1"/><circle cx="235" cy="142" r="2" style="fill:#000" class="net_168 width_1"/><line x1="235" x2="394" y1="142" y2="142" class="net_168 width_1" style="stroke-width: 1"/><line x1="107" x2="215" y1="295" y2="295" class="net_169 width_1" style="stroke-width: 1"/><line x1="215" x2="215" y1="295" y2="330" class="net_169 width_1" style="stroke-width: 1"/><circle cx="215" cy="295" r="2" style="fill:#000" class="net_169 width_1"/><line x1="215" x2="394" y1="330" y2="330" class="net_169 width_1" style="stroke-width: 1"/><line x1="107" x2="215" y1="295" y2="295" class="net_169 width_1" style="stroke-width: 1"/><line x1="215" x2="215" y1="295" y2="222" class="net_169 width_1" style="stroke-width: 1"/><line x1="215" x2="394" y1="222" y2="222" class="net_169 width_1" style="stroke-width: 1"/><line x1="107" x2="205" y1="77" y2="77" class="net_170 width_1" style="stroke-width: 1"/><line x1="205" x2="205" y1="77" y2="498" class="net_170 width_1" style="stroke-width: 1"/><line x1="205" x2="394" y1="498" y2="498" class="net_170 width_1" style="stroke-width: 1"/><line x1="107" x2="205" y1="77" y2="77" class="net_170 width_1" style="stroke-width: 1"/><line x1="205" x2="205" y1="77" y2="122" class="net_170 width_1" style="stroke-width: 1"/><circle cx="205" cy="122" r="2" style="fill:#000" class="net_170 width_1"/><line x1="205" x2="394" y1="122" y2="122" class="net_170 width_1" style="stroke-width: 1"/><line x1="107" x2="195" y1="147" y2="147" class="net_171 width_1" style="stroke-width: 1"/><line x1="195" x2="195" y1="147" y2="538" class="net_171 width_1" style="stroke-width: 1"/><line x1="195" x2="394" y1="538" y2="538" class="net_171 width_1" style="stroke-width: 1"/><line x1="107" x2="195" y1="147" y2="147" class="net_171 width_1" style="stroke-width: 1"/><line x1="195" x2="195" y1="147" y2="162" class="net_171 width_1" style="stroke-width: 1"/><circle cx="195" cy="162" r="2" style="fill:#000" class="net_171 width_1"/><line x1="195" x2="394" y1="162" y2="162" class="net_171 width_1" style="stroke-width: 1"/><line x1="107" x2="185" y1="182" y2="182" class="net_172 width_1" style="stroke-width: 1"/><line x1="185" x2="185" y1="182" y2="558" class="net_172 width_1" style="stroke-width: 1"/><circle cx="185" cy="182" r="2" style="fill:#000" class="net_172 width_1"/><line x1="185" x2="394" y1="558" y2="558" class="net_172 width_1" style="stroke-width: 1"/><line x1="107" x2="394" y1="182" y2="182" class="net_172 width_1" style="stroke-width: 1"/><line x1="107" x2="255" y1="953.5" y2="953.5" class="net_6 width_1" style="stroke-width: 1"/><line x1="255" x2="255" y1="953.5" y2="658" class="net_6 width_1" style="stroke-width: 1"/><circle cx="255" cy="953.5" r="2" style="fill:#000" class="net_6 width_1"/><line x1="255" x2="394" y1="658" y2="658" class="net_6 width_1" style="stroke-width: 1"/><line x1="107" x2="395" y1="953.5" y2="953.5" class="net_6 width_1" style="stroke-width: 1"/><line x1="107" x2="215" y1="32" y2="32" class="net_5 width_1" style="stroke-width: 1"/><line x1="215" x2="215" y1="32" y2="82" class="net_5 width_1" style="stroke-width: 1"/><line x1="215" x2="394" y1="82" y2="82" class="net_5 width_1" style="stroke-width: 1"/><rect x="100" y="907.5" width="22" height="9" class="net_7,8,9,10,11,12,13,14,15,16,17,18,19,20,21,22,23,24,25,26,27,28,29,30,31,32,33,34,35,36,37,38 width_32 busLabel_32" style="fill: white; stroke: none"/><text x="99" y="915.5" class="net_7,8,9,10,11,12,13,14,15,16,17,18,19,20,21,22,23,24,25,26,27,28,29,30,31,32,33,34,35,36,37,38 width_32 busLabel_32">/32/</text></svg>